<?xml version="1.0" encoding="utf-8"?>
<!-- Generator: Adobe Illustrator 27.5.0, SVG Export Plug-In . SVG Version: 6.00 Build 0)  -->
<svg version="1.1" xmlns="http://www.w3.org/2000/svg" xmlns:xlink="http://www.w3.org/1999/xlink" x="0px" y="0px"
	 viewBox="0 0 499.999 500" style="enable-background:new 0 0 499.999 500;" xml:space="preserve">
<g id="BACKGROUND">
	<ellipse style="opacity:0.29;fill:#C3B7FC;" cx="253.208" cy="385.906" rx="219.283" ry="33.736"/>
</g>
<g id="OBJECTS">
	<g style="display:none;">
		<path style="display:inline;fill:#E08675;" d="M185.496,350.676l-37.658,48.631c-3.042,3.927-8.577,4.789-12.649,2.079
			c-0.191-0.124-0.378-0.259-0.561-0.399c-4.113-3.185-4.864-9.097-1.679-13.21l37.655-48.633l7.788,6.033L185.496,350.676z"/>
		<path style="display:inline;fill:#DD6E5C;" d="M178.392,345.177l-43.203,56.209c-0.191-0.124-0.378-0.259-0.561-0.399
			c-4.113-3.185-4.864-9.097-1.679-13.21l37.655-48.633L178.392,345.177z"/>
		
			<rect x="175.103" y="328.847" transform="matrix(0.7907 0.6122 -0.6122 0.7907 245.963 -40.5727)" style="display:inline;fill:#A797FB;" width="14.425" height="21.129"/>
		<path style="display:inline;fill:#DD6E5C;" d="M240.117,264.754c-19.684-15.244-48-11.642-63.242,8.044
			c-15.24,19.683-11.64,47.997,8.044,63.241c19.686,15.242,47.997,11.64,63.242-8.044
			C263.402,308.31,259.803,279.996,240.117,264.754z M196.352,332.635c-2.05-1.027-4.03-2.266-5.912-3.725
			c-0.152-0.117-0.302-0.236-0.452-0.355c-1.599-1.278-3.059-2.667-4.378-4.148c-1.471-1.647-2.766-3.405-3.881-5.253
			c-2.773-4.569-4.454-9.667-4.997-14.893c-0.435-4.214-0.132-8.516,0.951-12.681c1.181-4.57,3.289-8.98,6.363-12.947
			c10.443-13.485,28.599-17.477,43.436-10.568c2.38,1.108,4.677,2.497,6.842,4.173c1.271,0.985,2.458,2.037,3.558,3.153
			c3.821,3.855,6.608,8.426,8.321,13.323c0.721,2.062,1.252,4.186,1.588,6.333c0.311,1.988,0.452,4.001,0.426,6.018
			c-0.033,2.511-0.326,5.03-0.892,7.503c-1.125,4.924-3.311,9.692-6.607,13.947C230.056,336.28,211.352,340.154,196.352,332.635z"/>
		<g style="display:inline;opacity:0.31;">
			<g>
				<path style="fill:#FFFFFF;" d="M237.882,275.391l-61.151,28.872c-0.437-4.217-0.13-8.518,0.952-12.685l49.797-23.512
					c2.382,1.108,4.677,2.496,6.841,4.172C235.594,273.224,236.781,274.276,237.882,275.391z"/>
				<path style="fill:#FFFFFF;" d="M247.791,295.048l-62.181,29.358c-1.469-1.646-2.766-3.404-3.882-5.251l64.476-30.44
					C246.924,290.779,247.456,292.9,247.791,295.048z"/>
			</g>
		</g>
		<path style="display:inline;fill:#FFFFFF;" d="M183.065,356.783l-17.432-13.498c-1.048-0.812-1.24-2.319-0.428-3.367l2.704-3.491
			c0.812-1.048,2.319-1.24,3.367-0.428l17.431,13.498c1.048,0.812,1.24,2.319,0.428,3.367l-2.703,3.491
			C185.621,357.403,184.113,357.595,183.065,356.783z"/>
	</g>
	<g>
		<g>
			<defs>
				<path id="SVGID_1_" d="M388.77,147.77l77.492,52.948c6.551,4.476,8.233,13.418,3.757,19.969L378.786,354.21
					c-4.476,6.551-13.418,8.233-19.969,3.757l-77.492-52.948c-6.551-4.476-8.233-13.418-3.757-19.969l91.233-133.523
					C373.277,144.977,382.219,143.294,388.77,147.77z"/>
			</defs>
			<clipPath id="SVGID_00000044178946197124542950000013880670365763706516_">
				<use xlink:href="#SVGID_1_"  style="overflow:visible;"/>
			</clipPath>
			<path style="clip-path:url(#SVGID_00000044178946197124542950000013880670365763706516_);fill:#DD6E5C;" d="M388.77,147.77
				l77.492,52.948c6.551,4.476,8.233,13.418,3.757,19.969L378.786,354.21c-4.476,6.551-13.418,8.233-19.969,3.757l-77.492-52.948
				c-6.551-4.476-8.233-13.418-3.757-19.969l91.233-133.523C373.277,144.977,382.219,143.294,388.77,147.77z"/>
			<path style="clip-path:url(#SVGID_00000044178946197124542950000013880670365763706516_);fill:#E08675;" d="M441.481,183.787
				l24.78,16.932c6.551,4.476,8.233,13.418,3.757,19.969L378.786,354.21c-4.476,6.551-13.418,8.233-19.969,3.757l-27.385-18.711
				c1.818-13.379,5.78-26.184,11.576-38.073c8.798-18.05,21.82-33.99,37.966-46.631C406.967,234.205,429.555,211.86,441.481,183.787
				z"/>
			<g style="clip-path:url(#SVGID_00000044178946197124542950000013880670365763706516_);">
				<path style="fill:#F1CB5C;" d="M314.363,264.183l22.895,15.643c1.326,0.906,1.669,2.731,0.763,4.057l-18.113,26.509
					c-0.906,1.326-2.731,1.669-4.057,0.763l-22.895-15.643c-1.326-0.906-1.669-2.731-0.763-4.057l18.113-26.509
					C311.212,263.621,313.037,263.277,314.363,264.183z"/>
				<path style="fill:#E79B24;" d="M324.103,270.838l-2.209-1.509l-5.763,8.435l-1.506-1.029c-1.938-1.324-4.592-0.825-5.916,1.113
					l-0.069,0.1l-4.92-3.362l-1.51,2.209l4.92,3.362l-1.784,2.611l-4.92-3.362l-1.509,2.209l4.92,3.362l-0.206,0.301
					c-1.324,1.938-0.825,4.592,1.113,5.916l1.506,1.029l-5.763,8.435l2.209,1.509l5.763-8.435l3.816,2.607l-5.763,8.435l2.209,1.509
					l5.763-8.435l1.104,0.755c1.938,1.324,4.592,0.825,5.916-1.113l0.206-0.301l4.92,3.362l1.51-2.209l-4.92-3.362l1.784-2.611
					l4.92,3.362l1.509-2.209l-4.92-3.362l0.069-0.1c1.324-1.938,0.825-4.592-1.113-5.916l-1.105-0.755l5.763-8.435l-2.209-1.509
					l-5.763,8.435l-3.816-2.607L324.103,270.838z M323.96,286.353c0.719,0.491,0.905,1.478,0.413,2.197l-5.077,7.431
					c-0.491,0.719-1.478,0.905-2.197,0.414l-10.845-7.41c-0.719-0.491-0.905-1.478-0.413-2.197l5.077-7.431
					c0.491-0.719,1.478-0.905,2.197-0.413L323.96,286.353z"/>
			</g>
			<g style="clip-path:url(#SVGID_00000044178946197124542950000013880670365763706516_);">
				
					<text transform="matrix(0.5642 -0.8257 0.8257 0.5642 343.0277 329.2969)" style="fill:#FFFFFF; font-family:'Barlow-ExtraBold'; font-size:19.6091px;">00 000 000 000 00</text>
			</g>
			<g style="clip-path:url(#SVGID_00000044178946197124542950000013880670365763706516_);">
				<path style="fill:#5F5EA5;" d="M448.595,230.773c0.512,3.258-0.17,6.712-2.178,9.65c-4.182,6.121-12.536,7.693-18.657,3.511
					c-6.121-4.182-7.693-12.536-3.51-18.657c2.008-2.938,4.977-4.829,8.199-5.536c0.552,3.53,2.505,6.832,5.688,9.007
					C441.319,230.923,445.105,231.542,448.595,230.773z"/>
				<path style="fill:#FFFFFF;" d="M442.906,221.767c3.183,2.175,5.136,5.477,5.689,9.007c-3.489,0.769-7.275,0.149-10.458-2.026
					c-3.183-2.175-5.136-5.477-5.688-9.007C435.937,218.972,439.723,219.592,442.906,221.767z"/>
				<path style="fill:#F1CB5C;" d="M453.283,206.58c6.121,4.182,7.693,12.536,3.511,18.657c-2.008,2.938-4.977,4.829-8.199,5.536
					c-0.552-3.53-2.505-6.832-5.689-9.007c-3.183-2.175-6.969-2.794-10.458-2.026c-0.512-3.258,0.17-6.712,2.178-9.65
					C438.808,203.969,447.162,202.398,453.283,206.58z"/>
			</g>
			<path style="opacity:0.12;clip-path:url(#SVGID_00000044178946197124542950000013880670365763706516_);fill:#FFFFFF;" d="
				M381.021,134.8c-12.633,0.254-24.41,5.413-33.163,14.525c-8.753,9.112-13.433,21.088-13.179,33.72
				c0.254,12.633,5.413,24.41,14.525,33.163c9.112,8.753,21.088,13.433,33.721,13.179c12.633-0.254,24.41-5.413,33.163-14.525
				c8.753-9.112,13.433-21.088,13.179-33.721c-0.254-12.633-5.413-24.41-14.525-33.163
				C405.629,139.227,393.654,134.546,381.021,134.8z M353.248,214.343l11.272-11.735c3.618,3.813,7.285,7.18,10.97,10.064
				c0.769,0.602,1.54,1.176,2.311,1.736l-8.589,8.941C363.459,221.579,358,218.58,353.248,214.343z M388.861,158.858
				c2.427,1.736,4.731,3.495,6.914,5.273l-14.173,14.755l-11.71-11.248l12.591-13.108
				C384.56,155.869,386.701,157.313,388.861,158.858z M366.926,164.789l-14.64-14.063c3.137-2.972,6.619-5.383,10.316-7.234
				c2.411,1.118,8.701,4.158,16.321,8.807L366.926,164.789z M364.076,167.755l-11.984,12.476c-4.953-7.43-8.248-13.601-9.46-15.96
				c1.7-3.761,3.966-7.331,6.804-10.578L364.076,167.755z M367.043,170.605l11.71,11.248l-14.16,14.742
				c-1.848-2.091-3.683-4.302-5.5-6.635c-1.648-2.116-3.193-4.218-4.628-6.26L367.043,170.605z M355.798,192.424
				c1.957,2.516,3.937,4.899,5.934,7.148l-11.424,11.893c-3.945-4.248-6.882-9.112-8.799-14.278l10.052-10.464
				C352.884,188.584,354.297,190.495,355.798,192.424z M378.057,209.457c-3.582-2.801-7.154-6.085-10.685-9.818l14.347-14.937
				L394.522,197l-13.844,14.413C379.804,210.788,378.93,210.14,378.057,209.457z M397.488,199.849l14.172,13.613
				c-3.156,2.991-6.663,5.414-10.386,7.269c-5.654-1.053-11.392-3.394-17.129-6.99L397.488,199.849z M400.338,196.883l13.357-13.905
				c3.822,5.585,6.391,11.22,7.672,16.824c-1.706,3.804-3.989,7.413-6.856,10.694L400.338,196.883z M397.371,194.033l-12.803-12.298
				l14.36-14.95c3.861,3.368,7.277,6.794,10.214,10.25c0.726,0.855,1.419,1.712,2.086,2.571L397.371,194.033z M412.277,174.373
				c-3.03-3.566-6.541-7.094-10.497-10.556l11.259-11.722c4.425,4.578,7.642,9.912,9.641,15.589l-8.576,8.928
				C413.514,175.864,412.91,175.117,412.277,174.373z M398.635,161.154c-2.327-1.905-4.788-3.788-7.381-5.642
				c-1.988-1.422-3.954-2.758-5.867-4.005l10.039-10.451c5.239,1.708,10.217,4.447,14.62,8.218L398.635,161.154z M390.883,139.848
				l-9.039,9.41c-5.754-3.556-10.797-6.22-14.188-7.905C375.123,138.743,383.177,138.236,390.883,139.848z M340.696,169.404
				c1.819,3.321,4.686,8.257,8.475,13.869l-9.052,9.424C338.196,185.054,338.382,176.977,340.696,169.404z M373.817,224.492
				l7.423-7.728c4.511,2.905,9.045,5.1,13.566,6.559C388.009,225.427,380.784,225.821,373.817,224.492z M423.692,193.23
				c-1.64-4.453-4.013-8.89-7.094-13.275l7.41-7.714C425.614,179.137,425.513,186.361,423.692,193.23z"/>
			
				<rect x="339.068" y="301.506" transform="matrix(0.5642 -0.8257 0.8257 0.5642 -87.6799 444.6926)" style="clip-path:url(#SVGID_00000044178946197124542950000013880670365763706516_);fill:#FFFFFF;" width="76.618" height="7.783"/>
			
				<rect x="355.732" y="319.697" transform="matrix(0.5642 -0.8257 0.8257 0.5642 -101.0555 455.7359)" style="clip-path:url(#SVGID_00000044178946197124542950000013880670365763706516_);fill:#FFFFFF;" width="50.836" height="7.783"/>
		</g>
	</g>
	<path style="fill:#C3B7FC;" d="M443.86,303.556c-3.333-3.999-7.26-7.656-11.694-10.327c-1.953-1.177-4.02-2.126-6.208-2.623
		c-0.58-0.132-1.232-0.266-1.904-0.359c5.174-2.42,10.292-4.955,15.141-7.871c0.015,0.024,0.025,0.047,0.042,0.071
		c3.24,4.599,7.735,7.983,12.927,9.82c4.543,1.608,10.365,2.281,13.899-1.189c0.466-0.457,0.35-1.383-0.161-1.822
		c-3.937-3.384-8.393-6.318-13.171-8.181c-2.104-0.82-4.279-1.394-6.494-1.494c-0.827-0.038-1.794-0.056-2.736,0.047
		c4.463-3.031,8.619-6.487,12.288-10.597c0.094,0.04,0.187,0.067,0.279,0.083c4.237,1.998,8.858,3.352,13.354,2.477
		c4.696-0.913,8.975-2.862,11.816-6.735c0.311-0.424-0.005-1.026-0.507-1.128c-4.551-0.93-9.19-1.094-13.684-0.43
		c-2.139,0.316-4.238,0.832-6.246,1.578c-0.764,0.284-1.586,0.606-2.383,0.989c1.355-1.768,2.618-3.647,3.736-5.62
		c0.263-0.152,0.486-0.384,0.621-0.678c0.355-0.343,0.69-0.712,1.03-1.073c1.027-1.089,1.991-2.251,2.901-3.443
		c1.507-1.972,2.631-4.119,3.312-6.536c0.655-2.326,0.885-4.757,0.957-7.187c0.04-1.338,0.016-2.679-0.029-4.02
		c-0.036-1.061-0.086-2.159-1.054-2.825c-0.423-0.291-0.925-0.397-1.362-0.103c-3.877,2.607-6.527,6.489-7.876,11.006
		c-0.664,2.222-1.005,4.514-1.098,6.851c-0.093,2.311-0.172,4.99,0.591,7.229c0.013,0.038,0.029,0.071,0.044,0.107
		c-0.984,1.715-2.086,3.371-3.307,4.967c0.168-2.734-0.465-5.65-1.286-8.227c-1.434-4.499-3.874-8.651-6.49-12.599
		c-0.788-1.19-2.453-3.916-4.137-3.208c-1.375,0.578-1.75,3.014-1.883,4.372c-0.385,3.949,1.203,8.296,2.868,11.93
		c1.943,4.241,4.659,7.998,8.2,10.992c-3.578,3.943-7.703,7.34-12.129,10.29c1.285-2.886,1.393-6.453,0.741-9.596
		c-1.023-4.937-3.248-9.909-5.595-14.421c-0.749-1.441-2.007-3.247-3.646-2.002c-1.369,1.039-2.012,3.479-2.478,5.117
		c-1.108,3.895-0.952,8.152-0.011,12.229c0.999,4.327,3.02,8.604,6.482,11.471c-0.245,0.142-0.488,0.286-0.734,0.425
		c-4.624,2.624-9.441,4.885-14.307,7.051c0.355-0.718,0.639-1.465,0.871-2.124c0.73-2.072,1.003-4.283,1.018-6.522
		c0.033-5.082-1.059-10.268-2.765-15.145c-0.221-0.633-1.047-1.084-1.648-0.827c-4.57,1.954-6.107,7.553-6.292,12.324
		c-0.196,5.065,1.085,10.074,3.756,14.518c-2.405,1.05-4.811,2.099-7.198,3.179c-3.689,1.669-7.311,3.46-10.845,5.399
		c1.028-1.405,1.939-2.85,2.66-4.531c0.978-2.283,1.577-4.745,1.872-7.255c0.576-4.91,0.001-9.963-0.602-14.922
		c-0.13-1.066-1.435-1.546-2.199-0.969c-4.509,3.407-7.709,8.314-8.88,14.025c-0.99,4.826-0.976,12.313,3.659,15.634
		c-3.756,2.209-7.398,4.603-10.895,7.222c-2.01,1.505-3.967,3.078-5.877,4.707c0.398-1.157,0.721-2.344,0.929-3.624
		c0.403-2.489,0.403-5.065,0.101-7.615c-0.592-4.987-2.317-9.84-4.048-14.591c-0.372-1.022-1.732-1.182-2.327-0.428
		c-3.517,4.449-5.434,10.065-5.225,15.987c0.167,4.714,1.736,11.543,6.267,14.13c-4.819,4.533-9.271,9.464-13.308,14.736
		c-1.053,1.375,1.219,3.127,2.27,1.744c4.15-5.462,8.744-10.541,13.742-15.186c1.091,5.473,7.852,8.72,12.655,9.947
		c5.729,1.464,11.614,0.782,16.7-1.715c0.861-0.423,0.995-1.788,0.077-2.37c-4.265-2.706-8.63-5.427-13.367-7.067
		c-2.422-0.839-4.934-1.387-7.447-1.521c-2.163-0.116-4.146,0.139-6.181,0.526c1.59-1.396,3.215-2.753,4.88-4.062
		c4.047-3.182,8.292-6.022,12.691-8.618c0.452,5.092,5.955,9.423,10.157,11.618c5.317,2.778,11.287,3.542,16.892,2.378
		c0.949-0.197,1.398-1.47,0.628-2.247c-3.583-3.612-7.26-7.263-11.557-9.971c-2.196-1.384-4.55-2.512-7.001-3.245
		c-1.681-0.503-3.303-0.753-4.956-0.894c2.827-1.542,5.709-2.999,8.638-4.391c2.788-1.325,5.615-2.613,8.447-3.909
		c2.44,4.8,6.214,8.702,10.887,11.323c4.245,2.381,9.927,4.085,14.052,1.347C444.246,304.996,444.292,304.074,443.86,303.556z"/>
	<g>
		<g>
			<defs>
				<path id="SVGID_00000180346484567381319900000017203067615496784260_" d="M253.178,267.922l-64.615,64.02
					c-5.462,5.412-14.28,5.371-19.692-0.091L58.561,220.516c-5.412-5.462-5.371-14.28,0.091-19.692l64.615-64.02
					c5.462-5.412,14.28-5.371,19.692,0.091l110.31,111.335C258.681,253.692,258.641,262.51,253.178,267.922z"/>
			</defs>
			<clipPath id="SVGID_00000111914425480955703620000003572174014383498930_">
				<use xlink:href="#SVGID_00000180346484567381319900000017203067615496784260_"  style="overflow:visible;"/>
			</clipPath>
			<path style="clip-path:url(#SVGID_00000111914425480955703620000003572174014383498930_);fill:#363271;" d="M253.178,267.922
				l-64.615,64.02c-5.462,5.412-14.28,5.371-19.692-0.091L58.561,220.516c-5.412-5.462-5.371-14.28,0.091-19.692l64.615-64.02
				c5.462-5.412,14.28-5.371,19.692,0.091l110.31,111.335C258.681,253.692,258.641,262.51,253.178,267.922z"/>
			<path style="clip-path:url(#SVGID_00000111914425480955703620000003572174014383498930_);fill:#514E92;" d="M209.226,311.47
				l-20.662,20.472c-5.462,5.412-14.28,5.371-19.692-0.091L58.561,220.516c-5.412-5.462-5.371-14.28,0.091-19.692l22.834-22.624
				c12.397,4.186,23.855,10.308,34.105,18.007c15.561,11.687,28.339,27.005,37.403,44.691
				C167.585,269.368,184.701,294.966,209.226,311.47z"/>
			<g style="clip-path:url(#SVGID_00000111914425480955703620000003572174014383498930_);">
				<path style="fill:#F1CB5C;" d="M156.061,175.741l-19.09,18.914c-1.105,1.095-2.905,1.087-4-0.018l-21.901-22.104
					c-1.095-1.105-1.087-2.905,0.019-4.001l19.09-18.914c1.105-1.095,2.905-1.087,4,0.019l21.901,22.104
					C157.175,172.845,157.167,174.645,156.061,175.741z"/>
				<path style="fill:#E79B24;" d="M147.94,183.787l1.842-1.825l-6.968-7.033l1.256-1.244c1.616-1.601,1.628-4.218,0.027-5.834
					l-0.083-0.084l4.102-4.065l-1.825-1.842l-4.103,4.065l-2.157-2.177l4.103-4.065l-1.825-1.842l-4.103,4.065l-0.249-0.251
					c-1.601-1.616-4.218-1.628-5.834-0.027l-1.256,1.244l-6.968-7.033l-1.842,1.825l6.968,7.033l-3.182,3.152l-6.968-7.033
					l-1.842,1.825l6.968,7.033l-0.921,0.913c-1.616,1.601-1.628,4.218-0.027,5.834l0.249,0.251l-4.103,4.065l1.825,1.842
					l4.103-4.065l2.157,2.177l-4.103,4.065l1.825,1.842l4.103-4.065l0.083,0.084c1.601,1.616,4.218,1.628,5.834,0.027l0.921-0.913
					l6.968,7.033l1.842-1.825l-6.968-7.033l3.182-3.152L147.94,183.787z M133.202,180.802c-0.599,0.594-1.573,0.589-2.167-0.01
					l-6.139-6.196c-0.594-0.6-0.589-1.573,0.01-2.167l9.042-8.959c0.6-0.594,1.573-0.589,2.167,0.01l6.139,6.196
					c0.594,0.6,0.589,1.573-0.01,2.167L133.202,180.802z"/>
			</g>
			<g style="clip-path:url(#SVGID_00000111914425480955703620000003572174014383498930_);">
				<path style="fill:#8690F1;" d="M163.207,309.611c-3.194-0.111-6.356-1.395-8.783-3.844c-5.057-5.104-5.019-13.342,0.085-18.399
					c5.104-5.057,13.342-5.019,18.399,0.085c2.428,2.45,3.681,5.623,3.763,8.818c-3.461-0.123-6.961,1.13-9.615,3.759
					C164.401,302.661,163.116,306.15,163.207,309.611z"/>
				<path style="fill:#FFFFFF;" d="M172.822,305.852c-2.654,2.63-6.155,3.882-9.615,3.759c-0.091-3.462,1.194-6.951,3.848-9.58
					c2.654-2.63,6.155-3.882,9.615-3.759C176.761,299.733,175.476,303.222,172.822,305.852z"/>
				<path style="fill:#F1CB5C;" d="M185.369,318.515c-5.104,5.057-13.342,5.019-18.399-0.085c-2.427-2.45-3.681-5.623-3.763-8.819
					c3.461,0.123,6.961-1.13,9.615-3.759s3.939-6.119,3.848-9.58c3.195,0.111,6.356,1.395,8.783,3.845
					C190.511,305.22,190.473,313.458,185.369,318.515z"/>
			</g>
			<path style="clip-path:url(#SVGID_00000111914425480955703620000003572174014383498930_);fill:#514E92;" d="M266.943,262.93
				c2.078-12.068-0.669-24.223-7.733-34.225c-7.064-10.002-17.601-16.655-29.669-18.733c-12.068-2.078-24.223,0.669-34.225,7.733
				c-10.003,7.064-16.655,17.601-18.733,29.669c-2.078,12.068,0.669,24.223,7.733,34.225c7.064,10.002,17.601,16.655,29.669,18.733
				c12.068,2.078,24.223-0.669,34.225-7.733C258.213,285.535,264.865,274.998,266.943,262.93z M196.349,221.895l9.098,12.882
				c-4.293,2.743-8.17,5.614-11.591,8.591c-0.714,0.621-1.402,1.249-2.077,1.88l-6.932-9.815
				C187.588,230.283,191.445,225.64,196.349,221.895z M242.611,265.974c-2.097,1.991-4.195,3.86-6.288,5.611l-11.439-16.197
				l12.854-9.078l10.162,14.388C246.245,262.43,244.477,264.202,242.611,265.974z M240.994,244.01l16.07-11.35
				c2.252,3.53,3.907,7.287,4.99,11.146c-1.506,2.089-5.554,7.516-11.378,13.914L240.994,244.01z M238.694,240.754l-9.672-13.695
				c7.98-3.349,14.457-5.352,16.925-6.072c3.267,2.308,6.248,5.12,8.817,8.417L238.694,240.754z M235.438,243.054l-12.854,9.078
				l-11.428-16.182c2.33-1.375,4.771-2.715,7.324-4.015c2.316-1.18,4.6-2.264,6.807-3.254L235.438,243.054z M216.739,228.347
				c-2.753,1.4-5.385,2.847-7.891,4.335l-9.22-13.055c4.767-2.974,9.935-4.876,15.202-5.752l8.112,11.486
				C220.929,226.279,218.851,227.273,216.739,228.347z M196.443,246.401c3.323-2.895,7.104-5.691,11.305-8.366l11.579,16.396
				l-14.053,9.925l-11.173-15.821C194.856,247.819,195.634,247.107,196.443,246.401z M202.018,266.656l-15.556,10.987
				c-2.266-3.553-3.928-7.334-5.01-11.218c2.04-5.188,5.321-10.217,9.797-15.017L202.018,266.656z M204.318,269.913l10.78,15.263
				c-6.016,2.611-11.851,4.022-17.419,4.211c-3.307-2.321-6.322-5.157-8.917-8.488L204.318,269.913z M207.574,267.613l14.053-9.925
				l11.59,16.41c-3.914,3.056-7.801,5.678-11.63,7.838c-0.947,0.534-1.89,1.036-2.829,1.513L207.574,267.613z M223.547,285.408
				c3.95-2.228,7.952-4.922,11.972-8.051l9.087,12.867c-5.169,3.37-10.835,5.452-16.605,6.312l-6.921-9.8
				C221.9,286.311,222.722,285.873,223.547,285.408z M238.631,274.852c2.24-1.865,4.484-3.861,6.724-5.987
				c1.718-1.631,3.35-3.256,4.888-4.848l8.102,11.471c-2.588,4.672-6.108,8.906-10.505,12.404L238.631,274.852z M260.329,271.388
				l-7.295-10.33c4.441-4.822,7.902-9.132,10.128-12.05C264.275,256.593,263.278,264.351,260.329,271.388z M241.418,218.203
				c-3.494,1.122-8.718,2.943-14.754,5.519l-7.306-10.345C226.985,212.95,234.637,214.61,241.418,218.203z M182.914,239.606
				l5.991,8.483c-3.593,3.759-6.514,7.671-8.732,11.705C179.419,252.939,180.371,245.991,182.914,239.606z M203.506,292.808
				c4.539-0.743,9.196-2.187,13.936-4.313l5.98,8.468C216.564,297.224,209.708,295.802,203.506,292.808z"/>
			
				<rect x="68.143" y="224.366" transform="matrix(0.7038 0.7104 -0.7104 0.7038 193.2405 -7.2133)" style="clip-path:url(#SVGID_00000111914425480955703620000003572174014383498930_);fill:#C3B7FC;" width="74.255" height="7.543"/>
			
				<rect x="62.633" y="224.616" transform="matrix(0.7038 0.7104 -0.7104 0.7038 188.0856 5.6498)" style="clip-path:url(#SVGID_00000111914425480955703620000003572174014383498930_);fill:#C3B7FC;" width="49.268" height="7.543"/>
			<g style="clip-path:url(#SVGID_00000111914425480955703620000003572174014383498930_);">
				
					<text transform="matrix(0.7038 0.7104 -0.7104 0.7038 88.8472 191.1716)" style="fill:#FFFFFF; font-family:'Barlow-ExtraBold'; font-size:19.0044px;">00 000 000 000 00</text>
			</g>
		</g>
	</g>
	<g>
		<path style="fill:#5F5EA5;" d="M355.118,382.728H186.458c-5.179,0-9.377-4.198-9.377-9.377V88.595
			c0-5.179,4.198-9.377,9.377-9.377h168.659c5.179,0,9.377,4.198,9.377,9.377v284.756
			C364.495,378.53,360.297,382.728,355.118,382.728z"/>
		<rect x="189.014" y="93.594" style="fill:#FFFFFF;" width="163.552" height="244.351"/>
		<path style="opacity:0.5;fill:#F1F1F1;" d="M313.506,337.945H189.014V93.594h36.82c10.097,28.323,14.02,58.602,19.566,88.016
			c3.176,16.805,6.731,33.573,11.91,49.88C269.552,270.087,290.196,304.68,313.506,337.945z"/>
		
			<ellipse transform="matrix(0.161 -0.987 0.987 0.161 -128.7215 569.8053)" style="fill:#FFFFFF;" cx="270.788" cy="360.614" rx="16.585" ry="16.585"/>
		<g>
			<path style="fill:#DD6E5C;" d="M368.718,123.997H228.524c0,0-27.939,0-28.099,0h-27.966l16.314-32.065h163.631L368.718,123.997z"
				/>
			<path style="fill:#E08675;" d="M200.496,123.997v15.756c0,7.452-6.305,13.545-14.019,13.545s-14.018-6.092-14.018-13.545v-15.756
				H200.496z"/>
			<path style="fill:#ECBF4C;" d="M228.533,123.997v15.756c0,7.452-6.305,13.545-14.018,13.545c-7.713,0-14.018-6.092-14.018-13.545
				v-15.756H228.533z"/>
			<path style="fill:#E08675;" d="M256.57,123.997v15.756c0,7.452-6.305,13.545-14.018,13.545c-7.713,0-14.019-6.092-14.019-13.545
				v-15.756H256.57z"/>
			<path style="fill:#ECBF4C;" d="M284.607,123.997v15.756c0,7.452-6.306,13.545-14.019,13.545c-7.713,0-14.019-6.092-14.019-13.545
				v-15.756H284.607z"/>
			<path style="fill:#E08675;" d="M312.644,123.997v15.756c0,7.452-6.306,13.545-14.018,13.545c-7.713,0-14.018-6.092-14.018-13.545
				v-15.756H312.644z"/>
			<path style="fill:#ECBF4C;" d="M340.681,123.997v15.756c0,7.452-6.306,13.545-14.019,13.545c-7.713,0-14.018-6.092-14.018-13.545
				v-15.756H340.681z"/>
			<path style="fill:#E08675;" d="M368.718,123.997v15.756c0,7.452-6.306,13.545-14.019,13.545c-7.713,0-14.018-6.092-14.018-13.545
				v-15.756H368.718z"/>
			<path style="fill:#E9B137;" d="M236.413,91.932l-7.889,32.065c0,0-27.939,0-28.099,0l11.42-32.065H236.413z"/>
			<polygon style="fill:#E9B137;" points="284.545,123.997 256.49,123.997 258.215,91.932 283.814,91.932 			"/>
			<polygon style="fill:#E9B137;" points="340.752,123.997 312.653,123.997 308.507,91.932 332.186,91.932 			"/>
		</g>
		<circle style="fill:#ECBF4C;" cx="229.515" cy="183.933" r="22.311"/>
		<g>
			<path style="fill:#DD6E5C;" d="M321.856,196.376h-33.13c-6.844,0-12.443-5.599-12.443-12.443l0,0
				c0-6.844,5.599-12.443,12.443-12.443h33.13c6.844,0,12.443,5.599,12.443,12.443l0,0
				C334.298,190.777,328.699,196.376,321.856,196.376z"/>
			<path style="fill:#FFFFFF;" d="M315.347,181.815c0-0.646-0.525-1.174-1.168-1.174h-2.041l-2.746-5.297
				c-0.181-0.35-0.615-0.487-0.963-0.305l0,0c-0.348,0.183-0.484,0.618-0.303,0.968l2.402,4.633h-10.259l2.402-4.633
				c0.181-0.35,0.045-0.786-0.303-0.968l0,0c-0.348-0.182-0.781-0.046-0.963,0.305l-2.746,5.297h-2.257
				c-0.642,0-1.168,0.529-1.168,1.174c0,0.606,0.462,1.109,1.05,1.169l1.682,9.548c0.038,0.218,0.227,0.377,0.447,0.377h14.013
				c0.225,0,0.415-0.165,0.449-0.388l1.441-9.539C314.895,182.911,315.347,182.414,315.347,181.815z M301.016,191.13
				c0,0.325-0.264,0.59-0.587,0.59c-0.323,0-0.587-0.266-0.587-0.59v-6.494c0-0.325,0.264-0.59,0.587-0.59
				c0.323,0,0.587,0.266,0.587,0.59V191.13z M304.39,191.13c0,0.325-0.264,0.59-0.587,0.59c-0.323,0-0.587-0.266-0.587-0.59v-6.494
				c0-0.325,0.264-0.59,0.587-0.59c0.323,0,0.587,0.266,0.587,0.59V191.13z M307.763,191.13c0,0.325-0.264,0.59-0.587,0.59
				c-0.323,0-0.587-0.266-0.587-0.59v-6.494c0-0.325,0.264-0.59,0.587-0.59c0.323,0,0.587,0.266,0.587,0.59V191.13z M311.137,191.13
				c0,0.325-0.264,0.59-0.587,0.59c-0.323,0-0.587-0.266-0.587-0.59v-6.494c0-0.325,0.264-0.59,0.587-0.59
				c0.323,0,0.587,0.266,0.587,0.59V191.13z"/>
		</g>
		
			<ellipse transform="matrix(0.7071 -0.7071 0.7071 0.7071 -100.2307 231.6533)" style="fill:#ECBF4C;" cx="229.515" cy="236.816" rx="22.311" ry="22.311"/>
		<g>
			<path style="fill:#DD6E5C;" d="M321.856,249.259h-33.13c-6.844,0-12.443-5.599-12.443-12.443l0,0
				c0-6.844,5.599-12.443,12.443-12.443h33.13c6.844,0,12.443,5.599,12.443,12.443l0,0
				C334.298,243.659,328.699,249.259,321.856,249.259z"/>
			<path style="fill:#FFFFFF;" d="M315.347,234.698c0-0.646-0.525-1.174-1.168-1.174h-2.041l-2.746-5.297
				c-0.181-0.35-0.615-0.487-0.963-0.305l0,0c-0.348,0.182-0.484,0.618-0.303,0.968l2.402,4.633h-10.259l2.402-4.633
				c0.181-0.35,0.045-0.786-0.303-0.968l0,0c-0.348-0.182-0.781-0.046-0.963,0.305l-2.746,5.297h-2.257
				c-0.642,0-1.168,0.529-1.168,1.174c0,0.606,0.462,1.109,1.05,1.169l1.682,9.548c0.038,0.218,0.227,0.377,0.447,0.377h14.013
				c0.225,0,0.415-0.165,0.449-0.388l1.441-9.539C314.895,235.794,315.347,235.297,315.347,234.698z M301.016,244.013
				c0,0.325-0.264,0.59-0.587,0.59c-0.323,0-0.587-0.266-0.587-0.59v-6.494c0-0.325,0.264-0.59,0.587-0.59
				c0.323,0,0.587,0.266,0.587,0.59V244.013z M304.39,244.013c0,0.325-0.264,0.59-0.587,0.59c-0.323,0-0.587-0.266-0.587-0.59
				v-6.494c0-0.325,0.264-0.59,0.587-0.59c0.323,0,0.587,0.266,0.587,0.59V244.013z M307.763,244.013c0,0.325-0.264,0.59-0.587,0.59
				c-0.323,0-0.587-0.266-0.587-0.59v-6.494c0-0.325,0.264-0.59,0.587-0.59c0.323,0,0.587,0.266,0.587,0.59V244.013z
				 M311.137,244.013c0,0.325-0.264,0.59-0.587,0.59c-0.323,0-0.587-0.266-0.587-0.59v-6.494c0-0.325,0.264-0.59,0.587-0.59
				c0.323,0,0.587,0.266,0.587,0.59V244.013z"/>
		</g>
		<circle style="fill:#ECBF4C;" cx="229.515" cy="289.699" r="22.311"/>
		<g>
			<path style="fill:#DD6E5C;" d="M321.856,302.142h-33.13c-6.844,0-12.443-5.599-12.443-12.443l0,0
				c0-6.844,5.599-12.443,12.443-12.443h33.13c6.844,0,12.443,5.599,12.443,12.443l0,0
				C334.298,296.542,328.699,302.142,321.856,302.142z"/>
			<path style="fill:#FFFFFF;" d="M315.347,287.58c0-0.646-0.525-1.174-1.168-1.174h-2.041l-2.746-5.297
				c-0.181-0.35-0.615-0.487-0.963-0.305l0,0c-0.348,0.182-0.484,0.618-0.303,0.968l2.402,4.633h-10.259l2.402-4.633
				c0.181-0.35,0.045-0.786-0.303-0.968l0,0c-0.348-0.183-0.781-0.046-0.963,0.305l-2.746,5.297h-2.257
				c-0.642,0-1.168,0.529-1.168,1.174c0,0.606,0.462,1.108,1.05,1.169l1.682,9.548c0.038,0.218,0.227,0.377,0.447,0.377h14.013
				c0.225,0,0.415-0.165,0.449-0.388l1.441-9.539C314.895,288.677,315.347,288.18,315.347,287.58z M301.016,296.896
				c0,0.325-0.264,0.59-0.587,0.59c-0.323,0-0.587-0.266-0.587-0.59v-6.494c0-0.325,0.264-0.59,0.587-0.59
				c0.323,0,0.587,0.266,0.587,0.59V296.896z M304.39,296.896c0,0.325-0.264,0.59-0.587,0.59c-0.323,0-0.587-0.266-0.587-0.59
				v-6.494c0-0.325,0.264-0.59,0.587-0.59c0.323,0,0.587,0.266,0.587,0.59V296.896z M307.763,296.896c0,0.325-0.264,0.59-0.587,0.59
				c-0.323,0-0.587-0.266-0.587-0.59v-6.494c0-0.325,0.264-0.59,0.587-0.59c0.323,0,0.587,0.266,0.587,0.59V296.896z
				 M311.137,296.896c0,0.325-0.264,0.59-0.587,0.59c-0.323,0-0.587-0.266-0.587-0.59v-6.494c0-0.325,0.264-0.59,0.587-0.59
				c0.323,0,0.587,0.266,0.587,0.59V296.896z"/>
		</g>
		<g>
			<rect x="225.263" y="277.787" style="fill:#FFFFFF;" width="7.953" height="3.915"/>
			<path style="fill:#514E92;" d="M239.845,285.145l-0.982,9.024l-0.652,6.015c0,0.648-0.152,1.261-0.427,1.809
				c-0.501,1.01-1.403,1.798-2.508,2.176c-0.458,0.157-0.951,0.243-1.465,0.243h-9.142c-2.421,0-4.401-1.903-4.401-4.227
				l-1.178-10.857l-0.453-4.181c0-0.343,0.042-0.678,0.126-0.999c0.29-1.139,1.063-2.1,2.101-2.67
				c0.641-0.354,1.384-0.556,2.174-0.556h12.404C237.863,280.921,239.845,282.821,239.845,285.145z"/>
			<path style="fill:#D45445;" d="M235.205,275.978v2.051c0,0.297-0.253,0.54-0.562,0.54h-10.807c-0.309,0-0.562-0.243-0.562-0.54
				v-2.051c0-0.297,0.253-0.54,0.562-0.54h10.807C234.952,275.438,235.205,275.681,235.205,275.978z"/>
			<path style="fill:#DD6E5C;" d="M235.205,275.978v2.051c0,0.297-0.253,0.54-0.562,0.54h-7.995c-0.309,0-0.562-0.243-0.562-0.54
				v-2.051c0-0.297,0.253-0.54,0.562-0.54h7.995C234.952,275.438,235.205,275.681,235.205,275.978z"/>
			<g style="opacity:0.11;">
				<path style="fill:#FFFFFF;" d="M235.276,304.168c-0.458,0.157-0.951,0.243-1.465,0.243h-2.281l-12.441-15.085l-0.453-4.181
					c0-0.343,0.042-0.678,0.126-0.999L235.276,304.168z"/>
				<path style="fill:#FFFFFF;" d="M238.864,294.17l-0.652,6.015c0,0.648-0.152,1.261-0.427,1.809l-16.921-20.516
					c0.641-0.354,1.384-0.556,2.174-0.556h4.902L238.864,294.17z"/>
			</g>
			<path style="fill:#ECBF4C;" d="M233.318,296.58h-8.157c-1.571,0-2.856-1.285-2.856-2.855v-6.035c0-1.571,1.285-2.855,2.856-2.855
				h8.157c1.57,0,2.855,1.285,2.855,2.855v6.035C236.173,295.295,234.888,296.58,233.318,296.58z"/>
			<g>
				<path style="fill:#FFFFFF;" d="M233.921,295.758h-9.364c-0.675,0-1.225-0.527-1.225-1.176v-7.75
					c0-0.648,0.549-1.176,1.225-1.176h9.364c0.675,0,1.225,0.527,1.225,1.176v7.75C235.146,295.231,234.597,295.758,233.921,295.758
					z M224.558,286.467c-0.21,0-0.381,0.164-0.381,0.366v7.75c0,0.202,0.171,0.366,0.381,0.366h9.364
					c0.21,0,0.381-0.164,0.381-0.366v-7.75c0-0.202-0.171-0.366-0.381-0.366H224.558z"/>
			</g>
		</g>
		<g>
			<path style="fill:#FFFFFF;" d="M243.708,231.9l-3.526,4.742c-0.087,0.122-0.261,0.136-0.368,0.031l-2.239-2.159
				c-0.156-0.153-0.421-0.042-0.421,0.177v14.117c0,0.136-0.111,0.247-0.247,0.247h-15.034c-0.136,0-0.247-0.111-0.247-0.247
				v-14.117c0-0.219-0.264-0.33-0.421-0.177l-2.239,2.159c-0.108,0.104-0.281,0.09-0.368-0.031l-3.522-4.742
				c-0.073-0.094-0.066-0.23,0.018-0.317l6.46-6.832c0.045-0.049,0.111-0.077,0.177-0.077h4.447c0.129,0,0.233,0.101,0.243,0.229
				c0.007,0.108,0.017,0.212,0.035,0.32c0.445,3.348,5.424,3.348,5.872,0c0.014-0.108,0.025-0.212,0.035-0.32
				c0.01-0.129,0.111-0.229,0.24-0.229h4.447c0.066,0,0.132,0.028,0.177,0.077l6.46,6.832
				C243.771,231.67,243.778,231.806,243.708,231.9z"/>
			<rect x="221.626" y="236.844" style="fill:#DD7E74;" width="15.528" height="3.129"/>
			<rect x="221.626" y="241.711" style="fill:#DD7E74;" width="15.528" height="3.129"/>
		</g>
		<g>
			<path style="fill:#DD7E74;" d="M233.024,171.831v11.87h-5.636v-13.283c0-1.021,1.074-1.685,1.986-1.229l0.963,0.48l1.957,0.979
				C232.742,170.872,233.024,171.33,233.024,171.831z"/>
			<path style="fill:#DD6E5C;" d="M232.392,183.701h-5.004v-13.283c0-1.021,1.074-1.685,1.986-1.229l0.963,0.48
				c-0.061,0.288-0.117,0.573-0.149,0.848c-0.216,1.786-0.208,3.621-0.149,5.417c0.053,1.651,0.197,3.32,0.741,4.879
				C231.145,181.862,231.697,182.837,232.392,183.701z"/>
			<path style="fill:#5F5EA5;" d="M234.435,182.995v13.392c0,2.248-1.778,2.783-3.999,2.815c-0.075,0.003-0.152,0.003-0.229,0.003
				c-2.325,0-4.228-0.493-4.228-2.818v-13.392c0-2.325,1.904-2.114,4.228-2.114h0.229c0.277-0.003,0.547-0.005,0.805-0.005
				C233.075,180.875,234.435,181.03,234.435,182.995z"/>
			<rect x="225.978" y="183.7" style="fill:#C3B7FC;" width="8.457" height="2.819"/>
			<path style="opacity:0.36;fill:#363271;" d="M230.435,180.88v18.322c-0.075,0.003-0.152,0.003-0.229,0.003
				c-2.325,0-4.228-0.493-4.228-2.818v-13.392c0-2.325,1.904-2.114,4.228-2.114H230.435z"/>
		</g>
	</g>
	<g>
		<g>
			<g>
				<circle style="fill:#E9A82F;" cx="435.567" cy="388.336" r="7.561"/>
			</g>
			<g>
				<path style="fill:#FFFFFF;" d="M431.85,388.336c0,2.052,1.664,3.716,3.716,3.716s3.716-1.664,3.716-3.716
					c0-2.053-1.664-3.716-3.716-3.716S431.85,386.284,431.85,388.336z"/>
			</g>
		</g>
		<g>
			<g>
				<circle style="fill:#E9A82F;" cx="392.251" cy="388.336" r="7.561"/>
			</g>
			<g>
				<path style="fill:#FFFFFF;" d="M388.535,388.336c0,2.052,1.664,3.716,3.717,3.716c2.052,0,3.716-1.664,3.716-3.716
					c0-2.053-1.664-3.716-3.716-3.716C390.198,384.62,388.535,386.284,388.535,388.336z"/>
			</g>
		</g>
		<path style="fill:#363271;" d="M369.824,309.779c0,1.274,1.033,2.307,2.307,2.307h19.73l1.432,9.227h-16.292v4.613h17.008
			l1.949,12.559h-13.831v4.614h14.546l1.471,9.483h-9.354c-1.274,0-2.307,1.033-2.307,2.307c0,1.274,1.033,2.307,2.307,2.307h56.643
			c1.054,0,1.974-0.714,2.235-1.735l11.534-45.11c0.176-0.69,0.024-1.423-0.413-1.986c-0.437-0.563-1.109-0.892-1.822-0.892h-84.837
			C370.857,307.472,369.824,308.505,369.824,309.779z M417.497,338.485v-12.559h14.206l-1.949,12.559H417.497z M429.039,343.099
			l-1.471,9.483h-10.07v-9.483H429.039z M447.247,338.485h-12.824l1.949-12.559h14.087L447.247,338.485z M417.497,321.313v-9.227
			h16.354l-1.432,9.227H417.497z M453.997,312.086l-2.359,9.227h-14.55l1.432-9.227H453.997z M443.643,352.582h-11.408l1.471-9.483
			h12.361L443.643,352.582z M401.342,343.099h11.541v9.483h-10.07L401.342,343.099z M398.677,325.926h14.206v12.559h-12.257
			L398.677,325.926z M396.53,312.086h16.354v9.227h-14.922L396.53,312.086z"/>
		<g>
			<path style="fill:#5F5EA5;" d="M368.799,308.754v0.769c0,1.692,1.384,3.076,3.076,3.076h87.913c1.692,0,3.076-1.384,3.076-3.076
				v-0.769c0-0.087-0.003-0.172-0.013-0.256c-0.128-1.574-1.458-2.819-3.063-2.819h-87.913c-1.604,0-2.935,1.246-3.063,2.819
				C368.802,308.582,368.799,308.667,368.799,308.754z"/>
		</g>
		<g>
			<path style="fill:#A797FB;" d="M368.812,308.497h94.038c-0.128-1.574-1.458-2.819-3.063-2.819h-87.913
				C370.27,305.678,368.94,306.924,368.812,308.497z"/>
		</g>
		<g>
			<path style="fill:#363271;" d="M393.533,379.366h52.542c1.415,0,2.563-1.148,2.563-2.563c0-1.415-1.148-2.563-2.563-2.563
				h-52.542c-2.303,0-5.344-0.383-6.751-2.208c-1.139-1.478-0.911-3.497-0.804-4.123l5.111-10.347
				c0.314-0.636,0.351-1.373,0.101-2.037l-24.862-66.127c-0.311-0.826-1.025-1.434-1.889-1.61l-17.685-3.588
				c-1.387-0.281-2.74,0.615-3.021,2.002c-0.282,1.387,0.615,2.74,2.002,3.021l16.295,3.306l23.971,63.758l-4.762,9.64
				c-0.076,0.154-0.137,0.316-0.181,0.483c-0.053,0.201-1.26,4.958,1.664,8.75C384.873,377.951,388.51,379.366,393.533,379.366z"/>
		</g>
	</g>
	<g>
		<g>
			<g>
				<g>
					<path style="fill:#EFC45E;" d="M414.999,387.795v8.049c0,2.112-1.497,3.837-3.331,3.837h-47.933
						c-1.833,0-3.331-1.725-3.331-3.837v-8.049c0-0.345,0.04-0.679,0.116-0.998c0.383-1.631,1.681-2.839,3.215-2.839h47.933
						c1.533,0,2.832,1.208,3.215,2.839C414.96,387.116,414.999,387.45,414.999,387.795z"/>
					<path style="fill:#E9A82F;" d="M414.884,386.797c-0.383,1.631-1.682,2.839-3.215,2.839h-47.933
						c-1.534,0-2.832-1.208-3.215-2.839c0.383-1.631,1.681-2.839,3.215-2.839h47.933
						C413.202,383.958,414.501,385.165,414.884,386.797z"/>
					<rect x="369.883" y="383.958" style="opacity:0.47;fill:#FFFFFF;" width="3.981" height="15.723"/>
					<rect x="403.625" y="383.958" style="opacity:0.47;fill:#FFFFFF;" width="3.981" height="15.723"/>
					<rect x="377.466" y="383.958" style="opacity:0.47;fill:#FFFFFF;" width="8.151" height="15.723"/>
				</g>
				<g>
					<path style="fill:#EFC45E;" d="M414.999,375.129v8.049c0,2.112-1.497,3.837-3.331,3.837h-47.933
						c-1.833,0-3.331-1.725-3.331-3.837v-8.049c0-0.345,0.04-0.679,0.116-0.998c0.383-1.631,1.681-2.839,3.215-2.839h47.933
						c1.533,0,2.832,1.208,3.215,2.839C414.96,374.45,414.999,374.784,414.999,375.129z"/>
					<path style="fill:#E9A82F;" d="M414.884,374.131c-0.383,1.631-1.682,2.839-3.215,2.839h-47.933
						c-1.534,0-2.832-1.208-3.215-2.839c0.383-1.631,1.681-2.839,3.215-2.839h47.933C413.202,371.292,414.501,372.5,414.884,374.131
						z"/>
					<rect x="369.883" y="371.292" style="opacity:0.47;fill:#FFFFFF;" width="3.981" height="15.723"/>
					<rect x="403.625" y="371.292" style="opacity:0.47;fill:#FFFFFF;" width="3.981" height="15.723"/>
					<rect x="377.466" y="371.292" style="opacity:0.47;fill:#FFFFFF;" width="8.151" height="15.723"/>
				</g>
			</g>
			<g>
				<g>
					<path style="fill:#EFC45E;" d="M414.999,362.9v8.049c0,2.112-1.497,3.837-3.331,3.837h-47.933
						c-1.833,0-3.331-1.725-3.331-3.837V362.9c0-0.345,0.04-0.679,0.116-0.998c0.383-1.631,1.681-2.839,3.215-2.839h47.933
						c1.533,0,2.832,1.208,3.215,2.839C414.96,362.22,414.999,362.555,414.999,362.9z"/>
					<path style="fill:#E9A82F;" d="M414.884,361.902c-0.383,1.631-1.682,2.839-3.215,2.839h-47.933
						c-1.534,0-2.832-1.208-3.215-2.839c0.383-1.631,1.681-2.839,3.215-2.839h47.933
						C413.202,359.063,414.501,360.27,414.884,361.902z"/>
					<rect x="369.883" y="359.063" style="opacity:0.47;fill:#FFFFFF;" width="3.981" height="15.723"/>
					<rect x="403.625" y="359.063" style="opacity:0.47;fill:#FFFFFF;" width="3.981" height="15.723"/>
					<rect x="377.466" y="359.063" style="opacity:0.47;fill:#FFFFFF;" width="8.151" height="15.723"/>
				</g>
				<g>
					<path style="fill:#EFC45E;" d="M414.999,350.234v8.049c0,2.112-1.497,3.837-3.331,3.837h-47.933
						c-1.833,0-3.331-1.725-3.331-3.837v-8.049c0-0.345,0.04-0.679,0.116-0.998c0.383-1.631,1.681-2.839,3.215-2.839h47.933
						c1.533,0,2.832,1.208,3.215,2.839C414.96,349.554,414.999,349.889,414.999,350.234z"/>
					<path style="fill:#E9A82F;" d="M414.884,349.236c-0.383,1.631-1.682,2.839-3.215,2.839h-47.933
						c-1.534,0-2.832-1.208-3.215-2.839c0.383-1.631,1.681-2.839,3.215-2.839h47.933
						C413.202,346.397,414.501,347.604,414.884,349.236z"/>
					<rect x="369.883" y="346.397" style="opacity:0.47;fill:#FFFFFF;" width="3.981" height="15.723"/>
					<rect x="403.625" y="346.397" style="opacity:0.47;fill:#FFFFFF;" width="3.981" height="15.723"/>
					<rect x="377.466" y="346.397" style="opacity:0.47;fill:#FFFFFF;" width="8.151" height="15.723"/>
				</g>
			</g>
			<g>
				<g>
					<path style="fill:#EFC45E;" d="M414.999,338.004v8.049c0,2.112-1.497,3.837-3.331,3.837h-47.933
						c-1.833,0-3.331-1.725-3.331-3.837v-8.049c0-0.345,0.04-0.679,0.116-0.998c0.383-1.631,1.681-2.839,3.215-2.839h47.933
						c1.533,0,2.832,1.208,3.215,2.839C414.96,337.325,414.999,337.659,414.999,338.004z"/>
					<path style="fill:#E9A82F;" d="M414.884,337.007c-0.383,1.631-1.682,2.839-3.215,2.839h-47.933
						c-1.534,0-2.832-1.208-3.215-2.839c0.383-1.631,1.681-2.839,3.215-2.839h47.933
						C413.202,334.168,414.501,335.375,414.884,337.007z"/>
					<rect x="369.883" y="334.168" style="opacity:0.47;fill:#FFFFFF;" width="3.981" height="15.723"/>
					<rect x="403.625" y="334.168" style="opacity:0.47;fill:#FFFFFF;" width="3.981" height="15.723"/>
					<rect x="377.466" y="334.168" style="opacity:0.47;fill:#FFFFFF;" width="8.151" height="15.723"/>
				</g>
				<g>
					<path style="fill:#EFC45E;" d="M414.999,325.339v8.049c0,2.112-1.497,3.837-3.331,3.837h-47.933
						c-1.833,0-3.331-1.725-3.331-3.837v-8.049c0-0.345,0.04-0.679,0.116-0.998c0.383-1.631,1.681-2.839,3.215-2.839h47.933
						c1.533,0,2.832,1.208,3.215,2.839C414.96,324.659,414.999,324.994,414.999,325.339z"/>
					<path style="fill:#E9A82F;" d="M414.884,324.341c-0.383,1.631-1.682,2.839-3.215,2.839h-47.933
						c-1.534,0-2.832-1.208-3.215-2.839c0.383-1.631,1.681-2.839,3.215-2.839h47.933
						C413.202,321.502,414.501,322.709,414.884,324.341z"/>
					<rect x="369.883" y="321.502" style="opacity:0.47;fill:#FFFFFF;" width="3.981" height="15.723"/>
					<rect x="403.625" y="321.502" style="opacity:0.47;fill:#FFFFFF;" width="3.981" height="15.723"/>
					<rect x="377.466" y="321.502" style="opacity:0.47;fill:#FFFFFF;" width="8.151" height="15.723"/>
				</g>
			</g>
		</g>
		<g>
			
				<text transform="matrix(1 0 0 1 339.4029 382.6607)" style="fill:#FFFFFF; font-family:'Barlow-ExtraBold'; font-size:35.9845px;">$</text>
			<path style="fill:#E9A82F;" d="M349.704,338.535c-2.817,0-5.547,0.371-8.145,1.066c-3.817,1.022-7.351,2.743-10.449,5.021
				c-1.81,1.328-3.472,2.845-4.955,4.525c-1.35,1.522-2.551,3.175-3.586,4.938c-2.741,4.665-4.311,10.098-4.311,15.898
				c0,17.368,14.079,31.446,31.446,31.446c3.518,0,6.903-0.579,10.061-1.644c1.948-0.657,3.809-1.5,5.564-2.507
				c1.953-1.12,3.771-2.444,5.431-3.94c2.878-2.596,5.274-5.717,7.036-9.213c2.147-4.25,3.354-9.056,3.354-14.142
				C381.151,352.614,367.072,338.535,349.704,338.535z"/>
			<g>
				<path style="fill:#EFC45E;" d="M377.438,369.982c0,5.086-1.208,9.893-3.354,14.142c-1.762,3.496-4.158,6.617-7.036,9.213
					c-1.66,1.496-3.479,2.819-5.431,3.94c-1.756,1.007-3.616,1.85-5.564,2.507c-3.158,1.066-6.543,1.644-10.061,1.644
					c-17.368,0-31.447-14.079-31.447-31.446c0-5.8,1.57-11.233,4.311-15.898c1.035-1.762,2.236-3.415,3.586-4.938
					c1.483-1.679,3.145-3.197,4.955-4.525c3.099-2.278,6.632-3.999,10.449-5.021c2.599-0.694,5.328-1.066,8.146-1.066
					C363.36,338.535,377.438,352.614,377.438,369.982z"/>
				<g style="opacity:0.59;">
					<path style="fill:#FFFFFF;" d="M361.617,397.277c-1.756,1.007-3.616,1.85-5.564,2.507l-37.196-45.7
						c1.035-1.762,2.236-3.415,3.586-4.938L361.617,397.277z"/>
					<path style="fill:#FFFFFF;" d="M374.084,384.124c-1.762,3.496-4.158,6.617-7.036,9.213l-39.651-48.716
						c3.099-2.278,6.632-3.999,10.449-5.021L374.084,384.124z"/>
				</g>
				<circle style="fill:#E79B24;" cx="345.992" cy="369.982" r="25.769"/>
				
					<ellipse transform="matrix(0.1317 -0.9913 0.9913 0.1317 -66.3446 664.2186)" style="fill:#E9A82F;" cx="345.992" cy="369.982" rx="22.493" ry="22.493"/>
				
					<text transform="matrix(1 0 0 1 335.689 382.6607)" style="fill:#FFFFFF; font-family:'Barlow-ExtraBold'; font-size:35.9845px;">$</text>
			</g>
		</g>
	</g>
	<path style="fill:#E08675;" d="M45.717,294.247c4.526-2.895,9.558-5.227,14.828-6.37c2.321-0.504,4.693-0.735,7.06-0.46
		c0.627,0.073,1.329,0.168,2.039,0.314c-4.577-4.323-9.062-8.743-13.168-13.456c-0.022,0.019-0.039,0.039-0.063,0.057
		c-4.601,3.541-10.135,5.391-15.938,5.412c-5.078,0.018-11.191-1.375-13.801-6.185c-0.344-0.633,0.037-1.538,0.681-1.804
		c4.966-2.049,10.332-3.455,15.72-3.65c2.373-0.086,4.749,0.106,7.03,0.795c0.852,0.257,1.841,0.585,2.77,1.026
		c-3.679-4.693-6.926-9.71-9.491-15.222c-0.107,0.007-0.21,0.002-0.307-0.015c-4.878,0.526-9.962,0.257-14.287-2.244
		c-4.518-2.612-8.317-6.133-10.107-11.107c-0.196-0.545,0.296-1.046,0.836-0.971c4.893,0.677,9.659,2.168,14.042,4.453
		c2.086,1.087,4.075,2.365,5.906,3.845c0.697,0.563,1.441,1.186,2.144,1.863c-0.876-2.291-1.628-4.663-2.204-7.079
		c-0.224-0.25-0.385-0.566-0.439-0.915c-0.263-0.477-0.499-0.974-0.743-1.464c-0.736-1.48-1.386-3.012-1.974-4.555
		c-0.973-2.554-1.507-5.149-1.513-7.863c-0.006-2.61,0.45-5.176,1.067-7.686c0.339-1.381,0.744-2.743,1.171-4.097
		c0.338-1.071,0.701-2.176,1.874-2.509c0.513-0.146,1.054-0.075,1.415,0.382c3.204,4.05,4.797,8.965,4.887,14.062
		c0.044,2.508-0.26,4.972-0.828,7.393c-0.562,2.395-1.242,5.16-2.653,7.175c-0.024,0.034-0.05,0.062-0.075,0.094
		c0.514,2.105,1.164,4.19,1.954,6.257c0.605-2.853,2.077-5.607,3.644-7.947c2.736-4.084,6.397-7.454,10.178-10.553
		c1.14-0.934,3.607-3.124,5.119-1.799c1.234,1.082,0.924,3.705,0.674,5.141c-0.73,4.173-3.579,8.046-6.304,11.164
		c-3.18,3.638-7.01,6.507-11.462,8.299c2.52,5.308,5.752,10.254,9.417,14.851c-0.488-3.408,0.415-7.091,1.97-10.07
		c2.442-4.679,6.117-8.963,9.786-12.734c1.171-1.204,2.963-2.601,4.277-0.742c1.097,1.551,1.059,4.274,1.068,6.114
		c0.021,4.376-1.346,8.669-3.461,12.499c-2.244,4.064-5.514,7.711-9.85,9.404c0.208,0.232,0.416,0.466,0.626,0.697
		c3.959,4.335,8.217,8.367,12.552,12.32c-0.157-0.861-0.234-1.726-0.283-2.482c-0.155-2.378,0.196-4.735,0.816-7.028
		c1.409-5.205,3.992-10.113,7.112-14.487c0.405-0.567,1.372-0.733,1.912-0.255c4.094,3.631,4.068,9.901,2.902,14.842
		c-1.238,5.245-3.963,9.905-7.942,13.491c2.149,1.933,4.298,3.865,6.42,5.823c3.279,3.024,6.455,6.15,9.499,9.395
		c-0.647-1.803-1.164-3.605-1.419-5.581c-0.347-2.682-0.257-5.412,0.156-8.082c0.808-5.223,2.827-10.181,4.849-15.031
		c0.435-1.043,1.899-1.067,2.512-0.204c3.619,5.093,5.482,11.252,5.052,17.505c-0.363,5.285-2.503,12.93-8.16,14.667
		c3.193,3.6,6.219,7.348,9.032,11.275c1.617,2.257,3.162,4.563,4.642,6.911c-0.077-1.324-0.068-2.654,0.084-4.035
		c0.296-2.688,1.028-5.32,2.059-7.817c2.018-4.884,5.151-9.226,8.26-13.462c0.669-0.911,2.097-0.588,2.489,0.395
		c2.315,5.804,2.67,12.228,0.776,18.203c-1.508,4.757-5.043,11.174-10.386,12.197c3.615,6.355,6.744,12.985,9.353,19.816
		c0.681,1.782-2.128,2.759-2.804,0.97c-2.671-7.065-5.902-13.897-9.668-20.431c-2.663,5.202-10.463,6.102-15.697,5.639
		c-6.244-0.553-12.036-3.354-16.501-7.724c-0.756-0.74-0.504-2.183,0.594-2.449c5.107-1.239,10.32-2.459,15.604-2.441
		c2.701,0.009,5.412,0.347,8.007,1.109c2.233,0.655,4.177,1.624,6.138,2.748c-1.22-1.995-2.489-3.963-3.811-5.896
		c-3.213-4.698-6.725-9.118-10.463-13.343c-1.905,5.042-8.732,7.499-13.63,8.24c-6.198,0.937-12.487-0.417-17.858-3.61
		c-0.91-0.541-1.005-2.002-0.001-2.52c4.67-2.41,9.447-4.826,14.587-6.056c2.627-0.629,5.341-0.94,8.042-0.813
		c1.853,0.087,3.574,0.412,5.295,0.858c-2.438-2.586-4.956-5.105-7.54-7.575c-2.46-2.351-4.97-4.678-7.483-7.014
		c-3.845,4.032-8.792,6.669-14.289,7.677c-4.994,0.915-11.258,0.624-14.677-3.649C44.916,295.581,45.13,294.623,45.717,294.247z"/>
	<g>
		<g>
			<g>
				<path style="fill:#FFFFFF;" d="M139.106,326.456h-9.038c-8.206,0-14.882-6.676-14.882-14.882v-40.25
					c0-8.206,6.676-14.882,14.882-14.882h9.038c8.206,0,14.882,6.676,14.882,14.882v40.25
					C153.988,319.779,147.312,326.456,139.106,326.456z M130.068,262.346c-4.95,0-8.977,4.027-8.977,8.977v40.25
					c0,4.95,4.027,8.977,8.977,8.977h9.038c4.95,0,8.978-4.027,8.978-8.977v-40.25c0-4.95-4.027-8.977-8.978-8.977H130.068z"/>
			</g>
			<path style="fill:#A797FB;" d="M178.825,280.896c-0.092-0.952-0.893-1.679-1.85-1.679l0,0h-74.232l0,0
				c-0.957,0-1.757,0.727-1.85,1.679l-9.763,100.883c-0.106,1.092,0.753,2.037,1.85,2.037h9.763h74.232h9.763
				c1.097,0,1.955-0.945,1.85-2.037L178.825,280.896z"/>
			<path style="fill:#C3B7FC;" d="M177.458,383.817H83.702c-1.099,0-1.957-0.945-1.852-2.037l9.764-100.884
				c0.046-0.477,0.27-0.894,0.601-1.196c0.331-0.302,0.77-0.483,1.248-0.483h74.232c0.957,0,1.757,0.728,1.85,1.679l9.583,99.017
				l0.181,1.866C179.415,382.872,178.557,383.817,177.458,383.817z"/>
			<path style="opacity:0.37;fill:#DFDBFC;" d="M177.458,383.817H83.702c-1.099,0-1.957-0.945-1.852-2.037l9.764-100.884
				c0.046-0.477,0.27-0.894,0.601-1.196c0.331-0.302,0.77-0.483,1.248-0.483h5.386c9.393,26.424,35.132,84.973,80.278,100.696
				l0.181,1.866C179.415,382.872,178.557,383.817,177.458,383.817z"/>
		</g>
		<g>
			<g>
				<path style="fill:#363271;" d="M169.594,354.969h-6.869c-6.236,0-11.31-5.074-11.31-11.31v-30.588
					c0-6.236,5.074-11.31,11.31-11.31h6.869c6.236,0,11.31,5.074,11.31,11.31v30.588
					C180.904,349.895,175.83,354.969,169.594,354.969z M162.725,306.248c-3.762,0-6.823,3.061-6.823,6.823v30.588
					c0,3.762,3.061,6.822,6.823,6.822h6.869c3.762,0,6.823-3.061,6.823-6.822v-30.588c0-3.762-3.061-6.823-6.823-6.823H162.725z"/>
			</g>
			<path style="fill:#D45445;" d="M199.778,320.346c-0.07-0.724-0.678-1.276-1.406-1.276l0,0h-56.413l0,0
				c-0.727,0-1.336,0.552-1.406,1.276l-7.419,76.667c-0.08,0.83,0.572,1.548,1.406,1.548h7.419h56.413h7.419
				c0.834,0,1.486-0.719,1.406-1.548L199.778,320.346z"/>
			<path style="fill:#DD6E5C;" d="M198.739,398.561h-71.251c-0.835,0-1.487-0.718-1.407-1.548l7.42-76.668
				c0.035-0.362,0.205-0.68,0.457-0.909c0.251-0.229,0.585-0.367,0.949-0.367h56.413c0.728,0,1.335,0.553,1.406,1.276l7.283,75.249
				l0.138,1.418C200.227,397.843,199.574,398.561,198.739,398.561z"/>
			<path style="fill:#E08675;" d="M198.739,398.561h-71.251c-0.835,0-1.487-0.718-1.407-1.548l7.42-76.668
				c0.035-0.362,0.205-0.68,0.457-0.909c0.251-0.229,0.585-0.367,0.949-0.367h4.093c7.138,20.081,26.699,64.576,61.008,76.525
				l0.138,1.418C200.227,397.843,199.574,398.561,198.739,398.561z"/>
		</g>
		<g>
			<g>
				<path style="fill:#ECBF4C;" d="M126.629,299.784v51.36c0,1.608-0.926,2.999-2.275,3.669c-0.549,0.275-1.168,0.428-1.824,0.428
					h-24.24c-2.263,0-4.097-1.835-4.097-4.097v-51.352c0-1.354,0.669-2.622,1.788-3.386l2.619-1.787l9.54-6.508
					c1.395-0.953,3.233-0.95,4.628,0.006l12.081,8.289C125.964,297.169,126.629,298.433,126.629,299.784z"/>
				<path style="opacity:0.35;fill:#E58F31;" d="M124.355,354.813c-0.549,0.275-1.168,0.428-1.824,0.428h-24.24
					c-2.263,0-4.097-1.835-4.097-4.097v-51.352c0-1.354,0.669-2.622,1.788-3.386l2.619-1.787c0.427,4.127,0.481,8.316,0.959,12.442
					c1.078,9.318,3.064,18.66,7.379,27.06C111.095,342.211,117.243,349.09,124.355,354.813z"/>
			</g>
			<g>
				<path style="fill:#FFFFFF;" d="M114.822,297.342c0,2.436-1.975,4.41-4.41,4.41c-2.436,0-4.41-1.974-4.41-4.41
					c0-2.436,1.974-4.41,4.41-4.41C112.848,292.932,114.822,294.906,114.822,297.342z"/>
				<path style="fill:#ECBF4C;" d="M112.83,297.342c0,1.336-1.083,2.418-2.418,2.418c-1.336,0-2.418-1.083-2.418-2.418
					c0-1.336,1.083-2.418,2.418-2.418C111.748,294.923,112.83,296.006,112.83,297.342z"/>
			</g>
			<path style="fill:#A797FB;" d="M110.412,298.906L110.412,298.906c-0.822,0-1.494-0.672-1.494-1.494v-19.774
				c0-0.822,0.672-1.494,1.494-1.494l0,0c0.822,0,1.494,0.672,1.494,1.494v19.774C111.906,298.234,111.234,298.906,110.412,298.906z
				"/>
			
				<text transform="matrix(1 0 0 1 103.6617 330.355)" style="fill:#FFFFFF; font-family:'Barlow-ExtraBold'; font-size:23.4415px;">$</text>
			<g>
				<rect x="97.467" y="346.99" style="fill:#FFFFFF;" width="1.28" height="5.264"/>
				<rect x="102.161" y="346.99" style="fill:#FFFFFF;" width="1.28" height="5.264"/>
				<rect x="104.01" y="346.99" style="fill:#FFFFFF;" width="1.28" height="5.264"/>
				<rect x="105.86" y="346.99" style="fill:#FFFFFF;" width="1.28" height="5.264"/>
				<rect x="107.709" y="346.99" style="fill:#FFFFFF;" width="1.28" height="5.264"/>
				<rect x="116.814" y="346.99" style="fill:#FFFFFF;" width="1.28" height="5.264"/>
				<rect x="118.948" y="346.99" style="fill:#FFFFFF;" width="1.28" height="5.264"/>
				<rect x="120.939" y="346.99" style="fill:#FFFFFF;" width="2.418" height="5.264"/>
				<rect x="99.458" y="346.99" style="fill:#FFFFFF;" width="1.992" height="5.264"/>
				<rect x="110.697" y="346.99" style="fill:#FFFFFF;" width="1.992" height="5.264"/>
				<rect x="113.4" y="346.99" style="fill:#FFFFFF;" width="0.569" height="5.264"/>
				<rect x="114.395" y="346.99" style="fill:#FFFFFF;" width="0.569" height="5.264"/>
				<rect x="115.391" y="346.99" style="fill:#FFFFFF;" width="0.569" height="5.264"/>
			</g>
		</g>
	</g>
	<g>
		<g>
			<g>
				<path style="fill:#363271;" d="M257.52,348.267h-2.455c-2.229,0-4.042-1.813-4.042-4.042v-10.931
					c0-2.228,1.813-4.042,4.042-4.042h2.455c2.228,0,4.042,1.813,4.042,4.042v10.931
					C261.561,346.454,259.748,348.267,257.52,348.267z M255.065,330.856c-1.344,0-2.438,1.094-2.438,2.438v10.931
					c0,1.344,1.094,2.438,2.438,2.438h2.455c1.344,0,2.438-1.094,2.438-2.438v-10.931c0-1.344-1.094-2.438-2.438-2.438H255.065z"/>
			</g>
			<path style="fill:#E79B24;" d="M268.306,335.894c-0.025-0.259-0.242-0.456-0.502-0.456l0,0h-20.16l0,0
				c-0.26,0-0.477,0.197-0.502,0.456l-2.651,27.397c-0.029,0.297,0.204,0.553,0.502,0.553h2.651h20.16h2.651
				c0.298,0,0.531-0.257,0.502-0.553L268.306,335.894z"/>
			<path style="fill:#ECBF4C;" d="M267.935,363.845h-25.462c-0.298,0-0.532-0.257-0.503-0.553l2.652-27.398
				c0.013-0.129,0.073-0.243,0.163-0.325c0.09-0.082,0.209-0.131,0.339-0.131h20.16c0.26,0,0.477,0.198,0.502,0.456l2.602,26.891
				l0.049,0.507C268.467,363.588,268.234,363.845,267.935,363.845z"/>
			<path style="fill:#E9A82F;" d="M267.935,363.845h-25.462c-0.298,0-0.532-0.257-0.503-0.553l2.652-27.398
				c0.013-0.129,0.073-0.243,0.163-0.325c0.09-0.082,0.209-0.131,0.339-0.131h1.463c2.551,7.176,9.541,23.077,21.802,27.347
				l0.049,0.507C268.467,363.588,268.234,363.845,267.935,363.845z"/>
		</g>
		<g>
			<g>
				<path style="fill:#F0C9A1;" d="M252.449,327.802c-0.114,0.382-0.191,0.779-0.178,1.177c0.035,1.047,0.685,1.963,1.413,2.697
					c0.642,0.647,1.366,1.21,2.149,1.671c0.744,0.438,1.8,0.738,2.387,0.088c0.265-0.293,0.349-0.706,0.527-1.059
					c0.444-0.878,1.413-1.312,2.227-1.852c0.465-0.309,0.917-0.698,1.1-1.23c0.275-0.8-0.133-1.665-0.613-2.351
					c-1.051-1.499-3.129-3.69-5.053-3.302C254.606,324.004,252.949,326.125,252.449,327.802z"/>
				<path style="fill:#E9A82F;" d="M290.822,283.519c-0.036,0.119-0.075,0.237-0.12,0.356c-6.521,17.315-16.419,33.259-28.935,46.65
					c-1.754-1.136-3.96-3.123-4.337-3.529c-0.864-0.926-1.49-1.954-2.186-2.996c11.189-12.782,19.845-27.793,25.332-43.814
					c0.964-2.81,3.953-4.349,6.735-3.474C290.15,277.607,291.689,280.658,290.822,283.519z"/>
			</g>
			<g>
				<path style="fill:#DD6E5C;" d="M272.587,404.016c-0.988,1.526-2.605,4.545,0.176,5.285c2.283,0.608,4.815-0.946,6.562-2.204
					c1.587-1.143,3.103-2.384,4.536-3.715c0.935-0.868,1.896-1.913,1.907-3.188c0.002-0.218-0.033-0.453-0.184-0.611
					c-0.142-0.148-0.355-0.198-0.557-0.237c-2.606-0.501-5.407-0.386-7.943,0.42C274.999,400.431,273.749,402.221,272.587,404.016z"
					/>
				<path style="fill:#DD6E5C;" d="M312.421,403.318c1.074,1.659,2.833,4.942-0.192,5.748c-2.482,0.661-5.236-1.029-7.136-2.397
					c-1.725-1.243-3.374-2.593-4.933-4.04c-1.016-0.943-2.062-2.081-2.074-3.467c-0.002-0.237,0.036-0.493,0.2-0.664
					c0.154-0.161,0.386-0.215,0.605-0.257c2.834-0.545,5.88-0.419,8.638,0.457C309.798,399.419,311.157,401.366,312.421,403.318z"/>
				<path style="fill:#C3B7FC;" d="M315.279,399.082c0.023,0.493-0.314,0.92-0.796,1.031c-7.745,1.781-16.057,0.932-18.696,0.583
					c-0.493-0.065-0.864-0.479-0.878-0.974l-0.176-6.267l-0.054-1.979l-0.275-9.872l-0.054-1.982l-0.275-9.872l-0.057-1.982
					l-0.275-9.875l-0.054-1.979l-0.275-9.878l-0.057-1.979l-0.283-10.161l-0.054-1.979l-0.062-2.223
					c-0.014-0.552-0.467-0.986-1.014-0.986h-0.042c-0.535,0.023-0.96,0.461-0.969,0.997l-0.037,2.404l-0.031,1.985l-0.156,10.209
					l-0.031,1.982l-0.15,9.923l-0.031,1.985l-0.153,9.923l-0.028,1.982l-0.153,9.923l-0.031,1.982l-0.153,9.923l-0.028,1.985
					l-0.096,6.236c-0.009,0.49-0.368,0.903-0.852,0.983c-10.874,1.812-16.988,0.906-19.042,0.459
					c-0.462-0.102-0.79-0.51-0.793-0.983c-0.014-2.69,0-5.42,0.037-8.176c0.011-0.674,0.02-1.351,0.031-2.028
					c0.059-3.248,0.147-6.525,0.263-9.804c0.026-0.671,0.048-1.342,0.076-2.016c0.125-3.265,0.275-6.533,0.445-9.773
					c0.034-0.671,0.071-1.34,0.108-2.008c0.181-3.291,0.382-6.55,0.598-9.75c0.043-0.668,0.088-1.334,0.136-1.996
					c0.229-3.325,0.473-6.581,0.722-9.739c0.054-0.668,0.107-1.331,0.161-1.991c0.283-3.486,0.575-6.836,0.864-10.011
					c0.062-0.671,0.122-1.334,0.184-1.988c0.314-3.39,0.626-6.559,0.92-9.453c0.068-0.677,0.136-1.337,0.204-1.98
					c0.799-7.728,1.453-13.202,1.699-15.218c0.062-0.496,0.47-0.869,0.968-0.886l29.101-1.116c0.507-0.02,0.951,0.337,1.036,0.841
					c0.714,4.231,1.376,8.742,1.991,13.418c0.088,0.66,0.173,1.32,0.258,1.985c0.382,3.007,0.745,6.072,1.088,9.167
					c0.074,0.668,0.147,1.337,0.218,2.008c0.351,3.231,0.68,6.488,0.986,9.733c0.065,0.677,0.13,1.353,0.192,2.027
					c0.295,3.189,0.572,6.358,0.83,9.478c0.057,0.685,0.111,1.365,0.167,2.045c0.261,3.24,0.504,6.417,0.725,9.495
					c0.051,0.691,0.099,1.379,0.147,2.062c0.235,3.316,0.444,6.505,0.634,9.509c0.045,0.705,0.088,1.396,0.13,2.079
					c0.215,3.475,0.397,6.678,0.552,9.526c0.04,0.722,0.077,1.422,0.113,2.096C315.041,393.588,315.211,397.47,315.279,399.082z"/>
				<g>
					<path style="fill:#FFFFFF;" d="M308.972,318.917c-11.33,3.681-23.474,4.706-35.257,2.956c0.068-0.677,0.136-1.337,0.204-1.98
						c11.631,1.745,23.626,0.731,34.795-2.962C308.802,317.591,308.887,318.251,308.972,318.917z"/>
					<path style="fill:#FFFFFF;" d="M290.899,332.107l-0.031,1.985c-6.083,0.462-12.223,0.207-18.257-0.779
						c0.062-0.671,0.122-1.334,0.184-1.988C278.776,332.317,284.867,332.575,290.899,332.107z"/>
					<path style="fill:#FFFFFF;" d="M310.278,330.091c-5.57,1.923-11.35,3.194-17.201,3.803l-0.054-1.979
						c5.797-0.612,11.526-1.892,17.037-3.832C310.133,328.752,310.207,329.42,310.278,330.091z"/>
					<path style="fill:#FFFFFF;" d="M290.712,344.302l-0.031,1.982c-6.369,0.467-12.794,0.15-19.095-0.969
						c0.054-0.668,0.107-1.331,0.161-1.991C278.003,344.452,284.388,344.772,290.712,344.302z"/>
					<path style="fill:#FFFFFF;" d="M311.456,341.852c-5.825,2.115-11.891,3.517-18.039,4.183l-0.057-1.979
						c6.106-0.671,12.129-2.084,17.903-4.231C311.328,340.501,311.393,341.178,311.456,341.852z"/>
					<path style="fill:#FFFFFF;" d="M290.531,356.207l-0.031,1.985c-6.598,0.467-13.256,0.094-19.772-1.141
						c0.043-0.668,0.088-1.334,0.136-1.996C277.343,356.3,283.966,356.682,290.531,356.207z"/>
					<path style="fill:#FFFFFF;" d="M312.452,353.375c-6.023,2.285-12.322,3.797-18.707,4.517l-0.054-1.979
						c6.352-0.725,12.616-2.257,18.594-4.582C312.342,352.016,312.396,352.695,312.452,353.375z"/>
					<path style="fill:#FFFFFF;" d="M290.347,368.115l-0.028,1.982c-6.777,0.467-13.616,0.042-20.296-1.289
						c0.034-0.671,0.071-1.34,0.108-2.008C276.779,368.154,283.595,368.585,290.347,368.115z"/>
					<path style="fill:#FFFFFF;" d="M313.325,364.932c-6.185,2.433-12.667,4.047-19.249,4.817l-0.057-1.982
						c6.556-0.776,13.013-2.416,19.158-4.897C313.228,363.561,313.277,364.249,313.325,364.932z"/>
					<path style="fill:#FFFFFF;" d="M290.166,380.02l-0.031,1.982c-6.893,0.459-13.848-0.003-20.633-1.405
						c0.026-0.671,0.048-1.342,0.076-2.016C276.343,380.009,283.287,380.484,290.166,380.02z"/>
					<path style="fill:#FFFFFF;" d="M314.089,376.52c-6.309,2.563-12.945,4.265-19.684,5.083l-0.054-1.982
						c6.723-0.827,13.335-2.56,19.608-5.18C314.004,375.146,314.047,375.837,314.089,376.52z"/>
					<path style="fill:#FFFFFF;" d="M289.981,391.925l-0.028,1.985c-6.933,0.442-13.927-0.042-20.746-1.481
						c0.011-0.674,0.02-1.351,0.031-2.028C276.051,391.874,283.049,392.378,289.981,391.925z"/>
					<path style="fill:#FFFFFF;" d="M314.755,388.142c-6.409,2.673-13.157,4.452-20.021,5.313l-0.054-1.979
						c6.853-0.875,13.587-2.69,19.962-5.429C314.681,386.768,314.718,387.468,314.755,388.142z"/>
				</g>
			</g>
			<path style="fill:#363271;" d="M305.312,247.628c3.784,4.92,4.835,11.759,9.426,15.936c2.381,2.166,5.473,3.371,8.085,5.252
				c2.612,1.881,4.86,4.937,4.221,8.092c-0.232,1.146-0.831,2.205-0.965,3.366c-0.126,1.085,0.164,2.17,0.268,3.257
				c0.336,3.481-1.386,7.084-4.306,9.009c-2.919,1.925-6.909,2.088-9.977,0.408c-1.427-0.781-2.665-1.926-4.202-2.457
				c-2.065-0.713-4.32-0.216-6.5-0.085c-3.37,0.202-6.879-0.558-9.573-2.593c-2.694-2.035-4.435-5.451-4.001-8.799
				c0.318-2.448,1.726-4.818,1.233-7.236c-0.512-2.511-2.877-4.147-4.285-6.289c-2.426-3.69-1.829-8.553-0.765-12.839
				c0.557-2.243,1.229-4.488,2.418-6.469c1.693-2.819,4.403-5.57,7.852-5.065C298.555,241.748,302.659,244.178,305.312,247.628z"/>
			<path style="fill:#ECBF4C;" d="M308.064,311.556c-2.74,0.88-5.45,1.56-8.13,2.05c-8.36,1.52-16.46,1.16-24.42-0.8
				c-2.1-0.51-3.46-26.71,0.44-34.34c0.5-0.98,1.2-1.9,2.04-2.74c2.51-2.46,6.34-4.15,10.39-4.23c3.81-0.08,7.46,1.52,9.96,3.71
				c2.5,2.2,4,4.92,5.2,7.66C307.164,291.156,308.564,311.386,308.064,311.556z"/>
			<path style="fill:#363271;" d="M275.417,256.781c0.009,1.912,0.316,3.916,1.472,5.439c1.156,1.523,3.356,2.378,5.061,1.513
				c0.941-0.477,1.589-1.375,2.155-2.265c1.274-2,2.333-4.138,3.154-6.363c0.766-2.077,1.329-4.3,1.019-6.492
				c-0.31-2.192-1.653-4.345-3.735-5.096C277.633,241.023,275.397,252.515,275.417,256.781z"/>
			<g>
				<g>
					<path style="fill:#F0C9A1;" d="M292.309,261.33v12.319c0,2.424-1.965,4.389-4.389,4.389c-2.424,0-4.389-1.965-4.389-4.389
						V261.33H292.309z"/>
					<path style="fill:#E9B588;" d="M292.309,264.281v9.062c-1.88-0.337-4.316-0.779-4.675-0.886
						c-1.422-0.428-2.804-0.971-4.104-1.671c-0.813-0.436-1.594-0.932-2.333-1.492c-2.761-2.101,0.074-3.226,2.333-4.135
						c0.003-0.003,0.009-0.003,0.011-0.006c2.379-0.957,4.942-1.464,7.505-1.47c0.252,0,0.51,0.003,0.739,0.105
						C292.012,263.89,292.179,264.066,292.309,264.281z"/>
				</g>
				<g>
					<path style="fill:#F0C9A1;" d="M277.44,253.694c-2.927,7.336-1.405,14.837,4.696,17.271c6.101,2.434,13.42-1.54,16.346-8.876
						c2.927-7.336,0.353-15.256-5.748-17.69C286.633,241.965,280.366,246.358,277.44,253.694z"/>
					<path style="fill:#F0C9A1;" d="M295.181,262.209c-1.351,1.918-1.203,4.349,0.331,5.43c1.534,1.081,3.873,0.403,5.225-1.515
						c1.351-1.918,1.203-4.349-0.331-5.43C298.871,259.613,296.532,260.291,295.181,262.209z"/>
					<path style="fill:#363271;" d="M283.458,239.726c-3.426,0.746-6.751,2.79-8.163,5.999c-0.489,1.111-0.719,2.443-0.148,3.514
						c0.318,0.595,0.851,1.047,1.418,1.412c3.16,2.03,7.247,1.585,10.967,1.066c-0.648,1.311,0.739,2.696,2.022,3.395
						c3.233,1.762,6.917,2.688,10.598,2.663c1.958-0.013,4.093-0.382,5.39-1.85c1.893-2.142,1.11-5.551-0.393-7.982
						C300.719,240.781,291.439,237.989,283.458,239.726z"/>
				</g>
			</g>
			<g>
				<path style="fill:#F0C9A1;" d="M252.044,256.957c-0.18-0.154-0.371-0.294-0.576-0.417c-0.484-0.292-0.855-0.076-0.981,0.444
					c-0.157,0.653,0.419,2.678,0.689,3.286c0.133,0.301-3.202,2.747-3.152,4.785c0.03,1.242,0.628,2.394,1.272,3.456
					c0.954,1.571,2.044,3.059,3.253,4.443c0.46,0.526,0.981,1.063,1.663,1.214c1.463,0.323,3.66-1.101,3.965-2.528
					c0.283-1.33-0.482-3.13-0.843-4.411c-0.344-1.221-0.333-2.442-0.527-3.698c-0.11-0.714-0.828-4.82-2.245-1.49
					C254.662,261.806,253.083,257.847,252.044,256.957z"/>
				<path style="fill:#E9A82F;" d="M257.087,265.98c3.036,4.198,5.909,8.426,8.839,12.497c1.464,2.036,2.945,4.029,4.465,5.96
					c0.379,0.484,0.761,0.964,1.148,1.436c0.383,0.478,0.773,0.945,1.164,1.411l0.582,0.691c0.186,0.216,0.356,0.407,0.51,0.569
					c0.306,0.324,0.548,0.524,0.7,0.615c0.144,0.078,0.266,0.135,0.424,0.171c0.154,0.04,0.34,0.07,0.582,0.079
					c0.477,0.024,1.173-0.057,1.956-0.279c0.784-0.219,1.649-0.565,2.508-1.004c0.215-0.108,0.43-0.225,0.644-0.343l0.722-0.414
					c0.485-0.287,0.97-0.576,1.465-0.892c1.972-1.237,4.028-2.697,6.305-4.168c0.463-0.3,0.938-0.601,1.425-0.9
					c3.163-1.942,7.317-0.477,8.609,3.003l0,0c1.029,2.773-0.138,5.897-2.755,7.275c-0.405,0.213-0.814,0.436-1.227,0.667
					c-2.088,1.157-4.284,2.512-6.721,3.831c-0.603,0.33-1.235,0.654-1.87,0.974l-0.971,0.472c-0.356,0.166-0.713,0.329-1.079,0.483
					c-1.458,0.617-3.005,1.137-4.707,1.479c-1.698,0.334-3.578,0.504-5.633,0.203c-1.022-0.149-2.082-0.428-3.11-0.865
					c-1.029-0.428-2.012-1.031-2.876-1.73c-0.851-0.696-1.502-1.415-2.028-2.053c-0.263-0.32-0.496-0.623-0.707-0.904l-0.598-0.812
					c-0.394-0.538-0.786-1.075-1.166-1.618c-0.386-0.541-0.763-1.084-1.135-1.629c-1.493-2.178-2.912-4.377-4.283-6.575
					c-2.743-4.396-5.319-8.782-7.987-13.031L257.087,265.98z"/>
			</g>
			<path style="opacity:0.55;fill:#E9A82F;" d="M299.934,313.606c-8.36,1.52-16.46,1.16-24.42-0.8c-2.1-0.51-3.46-26.71,0.44-34.34
				c0.5-0.98,1.2-1.9,2.04-2.74c0.39,2.45-0.13,5.58-0.12,7.04c0.04,4.66,0.81,9.33,2.53,13.68c3.13,7.87,9.67,14.6,17.86,16.79
				C298.814,313.386,299.374,313.506,299.934,313.606z"/>
		</g>
	</g>
</g>
<g id="DESIGNED_BY_FREEPIK">
	<g>
		<g id="XMLID_319_">
			<g id="XMLID_338_">
				<path id="XMLID_346_" style="fill:#1D262D;" d="M260.104,465.465c-0.433,0.443-0.804,0.932-1.108,1.453l-0.465-0.241
					c-0.067-0.297-0.35-0.502-0.659-0.466c-0.331,0.039-0.567,0.339-0.529,0.67c0.039,0.331,0.339,0.567,0.67,0.528
					c0.065-0.007,0.127-0.025,0.184-0.052l0.451,0.234c-0.251,0.554-0.433,1.139-0.539,1.743l0.747,0.132
					c0.23-1.306,0.85-2.507,1.792-3.473L260.104,465.465z"/>
				<path id="XMLID_345_" style="fill:#1D262D;" d="M265.591,463.164c-0.171,0-0.341,0.006-0.509,0.017l-0.074-0.626
					c0.188-0.149,0.296-0.389,0.266-0.645c-0.046-0.393-0.402-0.674-0.795-0.628c-0.394,0.046-0.675,0.402-0.628,0.796
					c0.03,0.254,0.189,0.461,0.404,0.563l0.073,0.624c-0.714,0.116-1.402,0.332-2.06,0.646l0.327,0.685
					c0.935-0.447,1.941-0.674,2.995-0.674c0.497,0,0.993,0.053,1.476,0.158l0.16-0.741
					C266.692,463.222,266.142,463.164,265.591,463.164z"/>
				<path id="XMLID_344_" style="fill:#1D262D;" d="M272.194,465.711c0.331-0.04,0.566-0.341,0.525-0.672
					c-0.04-0.331-0.341-0.566-0.672-0.525c-0.31,0.038-0.535,0.304-0.53,0.608l-0.416,0.363c-0.418-0.43-0.89-0.813-1.407-1.14
					l-0.404,0.642c1.135,0.715,2.021,1.727,2.564,2.925l0.69-0.313c-0.251-0.554-0.567-1.071-0.942-1.545l0.402-0.351
					C272.065,465.715,272.128,465.719,272.194,465.711z"/>
				<path id="XMLID_343_" style="fill:#1D262D;" d="M265.044,473.372c-0.386,0.023-0.775,0.035-1.157,0.035
					c-0.88,0-1.733-0.061-2.479-0.18c-0.391-0.062-0.846-0.154-1.271-0.292c1.047,1.861,3.069,3.125,5.389,3.125
					c2.855,0,5.263-1.916,5.949-4.503c-0.682,0.449-1.505,0.825-2.458,1.122C267.838,473.047,266.463,473.287,265.044,473.372z"/>
				<path id="XMLID_339_" style="fill:#1D262D;" d="M265.591,464.68c-3.351,0-6.079,2.666-6.079,5.943
					c0,0.425,0.046,0.849,0.137,1.261c0.674,0.483,2.706,0.891,5.348,0.731c2.88-0.174,5.297-0.958,6.672-2.159
					c-0.005-0.194-0.021-0.39-0.045-0.581C271.244,466.914,268.65,464.68,265.591,464.68z M263.432,471.195
					c-1.02,0-1.85-0.83-1.85-1.85c0-1.021,0.83-1.851,1.85-1.851c1.02,0,1.85,0.83,1.85,1.851
					C265.282,470.365,264.452,471.195,263.432,471.195z M268.169,470.287c-0.75,0-1.36-0.61-1.36-1.36s0.61-1.36,1.36-1.36
					s1.36,0.61,1.36,1.36S268.919,470.287,268.169,470.287z"/>
			</g>
			<path id="XMLID_336_" style="fill:#1D262D;" d="M281.595,466.547c-0.295-0.116-0.806-0.31-1.383-0.238
				c-0.551,0.069-0.844,0.341-0.844,1.007v0.866h2.229v1.717h-2.229v5.455h-1.932v-5.455h-1.339v-1.717h1.339v-0.889
				c0-1.68,0.896-2.782,2.568-2.782c0.643,0,1.157,0.121,1.59,0.308V466.547z"/>
			<path id="XMLID_334_" style="fill:#1D262D;" d="M286.297,469.878c-0.177-0.029-0.357-0.046-0.525-0.046
				c-0.896,0-1.51,0.548-1.51,1.613v3.908h-1.933v-7.172h1.873v0.784c0.451-0.673,1.14-0.977,2.021-0.977
				c0.414,0,0.848,0.128,1.095,0.337L286.297,469.878z"/>
			<path id="XMLID_331_" style="fill:#1D262D;" d="M293.965,471.757c0,0.222-0.016,0.488-0.037,0.651h-5.085
				c0.207,1.036,0.933,1.487,1.843,1.487c0.622,0,1.295-0.252,1.813-0.689l1.133,1.243c-0.814,0.748-1.851,1.089-3.057,1.089
				c-2.198,0-3.724-1.496-3.724-3.753c0-2.258,1.48-3.797,3.627-3.797C292.543,467.99,293.958,469.522,293.965,471.757z
				 M288.851,471.091h3.175c-0.178-0.918-0.732-1.437-1.562-1.437C289.554,469.655,289.021,470.203,288.851,471.091z"/>
			<path id="XMLID_328_" style="fill:#1D262D;" d="M301.619,471.757c0,0.222-0.016,0.488-0.037,0.651h-5.085
				c0.207,1.036,0.933,1.487,1.843,1.487c0.622,0,1.296-0.252,1.814-0.689l1.133,1.243c-0.815,0.748-1.851,1.089-3.058,1.089
				c-2.198,0-3.723-1.496-3.723-3.753c0-2.258,1.48-3.797,3.627-3.797C300.197,467.99,301.611,469.522,301.619,471.757z
				 M296.504,471.091h3.175c-0.178-0.918-0.733-1.437-1.561-1.437C297.208,469.655,296.674,470.203,296.504,471.091z"/>
			<path id="XMLID_325_" style="fill:#1D262D;" d="M309.964,471.764c0,2.154-1.495,3.775-3.472,3.775
				c-0.962,0-1.644-0.378-2.109-0.933v3.708h-1.925v-10.133h1.888v0.792c0.467-0.585,1.154-0.984,2.139-0.984
				C308.469,467.99,309.964,469.611,309.964,471.764z M304.287,471.764c0,1.133,0.748,1.977,1.844,1.977
				c1.14,0,1.85-0.881,1.85-1.977c0-1.095-0.71-1.976-1.85-1.976C305.035,469.789,304.287,470.632,304.287,471.764z"/>
			<path id="XMLID_322_" style="fill:#1D262D;" d="M313.068,465.836c0,0.696-0.541,1.229-1.236,1.229
				c-0.696,0-1.229-0.533-1.229-1.229c0-0.695,0.532-1.243,1.229-1.243C312.527,464.592,313.068,465.14,313.068,465.836z
				 M312.808,475.354h-1.932v-7.172h1.932V475.354z"/>
			<path id="XMLID_320_" style="fill:#1D262D;" d="M316.032,470.736l2.702-2.554h2.368l-3.478,3.375l3.501,3.797h-2.376
				l-2.717-2.901v2.901H314.1v-10.658h1.932V470.736z"/>
		</g>
		<g>
			<path style="fill:#1D262D;" d="M184.412,475.29v-1.055c-0.527,0.718-1.391,1.23-2.387,1.23c-1.846,0-3.149-1.406-3.149-3.706
				c0-2.256,1.289-3.721,3.149-3.721c0.952,0,1.816,0.469,2.387,1.245v-3.765h1.099v9.771H184.412z M184.412,473.371v-3.208
				c-0.395-0.615-1.245-1.143-2.124-1.143c-1.42,0-2.27,1.172-2.27,2.739c0,1.567,0.85,2.725,2.27,2.725
				C183.167,474.484,184.017,473.986,184.412,473.371z"/>
			<path style="fill:#1D262D;" d="M186.932,471.745c0-2.051,1.465-3.706,3.486-3.706c2.139,0,3.398,1.67,3.398,3.794v0.278h-5.727
				c0.088,1.333,1.025,2.446,2.549,2.446c0.806,0,1.626-0.322,2.182-0.894l0.527,0.718c-0.703,0.703-1.655,1.084-2.812,1.084
				C188.44,475.465,186.932,473.957,186.932,471.745z M190.403,468.947c-1.509,0-2.256,1.274-2.314,2.358h4.644
				C192.718,470.25,192.015,468.947,190.403,468.947z"/>
			<path style="fill:#1D262D;" d="M194.607,474.352l0.571-0.791c0.469,0.542,1.362,1.011,2.329,1.011c1.084,0,1.67-0.513,1.67-1.216
				c0-1.714-4.38-0.659-4.38-3.281c0-1.099,0.952-2.036,2.636-2.036c1.202,0,2.051,0.454,2.623,1.025l-0.513,0.762
				c-0.424-0.513-1.201-0.894-2.109-0.894c-0.966,0-1.567,0.483-1.567,1.113c0,1.553,4.379,0.527,4.379,3.281
				c0,1.187-0.952,2.139-2.783,2.139C196.306,475.465,195.325,475.114,194.607,474.352z"/>
			<path style="fill:#1D262D;" d="M201.477,466.471c0-0.41,0.337-0.747,0.732-0.747c0.41,0,0.747,0.337,0.747,0.747
				c0,0.41-0.337,0.732-0.747,0.732C201.814,467.204,201.477,466.881,201.477,466.471z M201.667,475.29v-7.075h1.099v7.075H201.667z
				"/>
			<path style="fill:#1D262D;" d="M204.582,477.106l0.556-0.82c0.586,0.703,1.289,0.967,2.3,0.967c1.172,0,2.271-0.571,2.271-2.124
				v-1.011c-0.513,0.718-1.377,1.26-2.373,1.26c-1.846,0-3.149-1.377-3.149-3.662c0-2.271,1.289-3.677,3.149-3.677
				c0.952,0,1.802,0.469,2.373,1.245v-1.069h1.099v6.87c0,2.344-1.641,3.076-3.369,3.076
				C206.237,478.161,205.416,477.925,204.582,477.106z M209.708,473.253v-3.091c-0.381-0.615-1.23-1.143-2.109-1.143
				c-1.421,0-2.27,1.128-2.27,2.695c0,1.553,0.849,2.695,2.27,2.695C208.478,474.411,209.328,473.869,209.708,473.253z"/>
			<path style="fill:#1D262D;" d="M217.413,475.29v-4.629c0-1.245-0.63-1.641-1.582-1.641c-0.864,0-1.685,0.527-2.094,1.099v5.171
				h-1.099v-7.075h1.099v1.025c0.497-0.586,1.464-1.201,2.519-1.201c1.479,0,2.256,0.747,2.256,2.285v4.966H217.413z"/>
			<path style="fill:#1D262D;" d="M219.932,471.745c0-2.051,1.465-3.706,3.486-3.706c2.139,0,3.398,1.67,3.398,3.794v0.278h-5.727
				c0.088,1.333,1.025,2.446,2.548,2.446c0.806,0,1.626-0.322,2.183-0.894l0.527,0.718c-0.703,0.703-1.655,1.084-2.813,1.084
				C221.441,475.465,219.932,473.957,219.932,471.745z M223.404,468.947c-1.509,0-2.256,1.274-2.314,2.358h4.643
				C225.718,470.25,225.015,468.947,223.404,468.947z"/>
			<path style="fill:#1D262D;" d="M233.35,475.29v-1.055c-0.527,0.718-1.392,1.23-2.388,1.23c-1.845,0-3.149-1.406-3.149-3.706
				c0-2.256,1.289-3.721,3.149-3.721c0.952,0,1.817,0.469,2.388,1.245v-3.765h1.098v9.771H233.35z M233.35,473.371v-3.208
				c-0.396-0.615-1.245-1.143-2.124-1.143c-1.421,0-2.27,1.172-2.27,2.739c0,1.567,0.85,2.725,2.27,2.725
				C232.105,474.484,232.954,473.986,233.35,473.371z"/>
			<path style="fill:#1D262D;" d="M239.692,475.29v-9.771h1.099v3.765c0.571-0.776,1.421-1.245,2.388-1.245
				c1.845,0,3.149,1.465,3.149,3.721c0,2.3-1.304,3.706-3.149,3.706c-0.996,0-1.86-0.513-2.388-1.23v1.055H239.692z M242.9,474.484
				c1.436,0,2.285-1.157,2.285-2.725c0-1.567-0.85-2.739-2.285-2.739c-0.864,0-1.729,0.527-2.109,1.143v3.208
				C241.171,473.986,242.036,474.484,242.9,474.484z"/>
			<path style="fill:#1D262D;" d="M247.528,477.062c0.161,0.073,0.425,0.117,0.601,0.117c0.483,0,0.806-0.161,1.055-0.747
				l0.469-1.069l-2.959-7.148h1.187l2.358,5.801l2.344-5.801h1.2l-3.544,8.511c-0.425,1.024-1.143,1.421-2.08,1.436
				c-0.234,0-0.6-0.044-0.806-0.104L247.528,477.062z"/>
		</g>
	</g>
</g>
</svg>
